<svg width="106" height="141" viewBox="0 0 106 141" fill="none" xmlns="http://www.w3.org/2000/svg">
<path d="M76.3962 41.537C77.7639 42.8916 78.5654 44.9342 78.6829 46.8392V97.702C78.373 101.544 75.4986 104.56 71.6304 104.973H32.2965C29.016 104.634 26.2057 102.253 25.5004 99.0672C24.9234 81.6579 25.4256 64.1427 25.2439 46.7016C25.5218 42.7541 28.5886 39.5791 32.585 39.2828C36.5814 38.9864 40.5779 39.5262 44.4354 39.2616C45.3116 37.8329 46.1023 36.6581 47.5663 35.7586C50.2911 34.0864 53.4861 34.0653 56.243 35.7056C57.7604 36.6052 58.5725 37.8117 59.4701 39.2722L71.5983 39.3145C73.3721 39.5262 75.1139 40.2882 76.3855 41.5476L76.3962 41.537ZM61.6072 42.807H57.6749C57.5146 42.807 56.7773 42.2566 56.6384 42.0661C56.3392 41.6322 56.2644 40.9655 56.0186 40.4681C54.5013 37.3355 49.8103 37.1555 48.0685 40.2035C47.7373 40.7856 47.5877 41.6005 47.2671 42.0556C47.1282 42.2461 46.3909 42.7964 46.2306 42.7964H42.2983V45.0718C42.2983 46.7545 44.617 48.4161 46.2199 48.5325C50.0774 48.8182 54.3196 48.3314 58.2092 48.4901C59.5663 48.3314 61.5859 46.3947 61.5859 45.0718V42.7964L61.6072 42.807ZM38.7506 42.807H32.2965C32.2217 42.807 31.0997 43.2726 30.9287 43.3679C29.6785 44.0558 28.8664 45.5903 28.8023 46.9979V97.4162C28.9839 99.5435 30.3303 101.036 32.4461 101.448H71.1816C73.4256 101.279 74.9216 99.5964 75.1139 97.4162V46.7016C74.975 45.3681 74.1629 44.0135 72.9875 43.3679C72.8272 43.2726 71.6945 42.807 71.6197 42.807H65.1656V45.3787C65.1656 48.7124 61.1691 51.845 57.9741 52.0673C54.7791 52.2895 49.2226 52.3213 45.9421 52.0673C42.6616 51.8133 38.7506 48.7441 38.7506 45.3787V42.807Z" fill="#00A4F4"/>
<path d="M61.8034 66.1254C63.5354 65.7993 64.7302 67.5196 63.7437 69.0487L50.2825 82.5634C49.2631 83.3392 48.5944 83.238 47.6188 82.4735C45.6786 79.9999 42.4119 77.7512 40.5375 75.3788C40.0551 74.7717 39.6496 74.2657 39.8469 73.4112C40.1099 72.2081 41.4034 71.6797 42.4887 72.1294C42.7079 72.2194 44.8016 74.2882 45.1962 74.6592C46.5007 75.9185 47.6955 77.3015 49 78.5607L61.0909 66.4627C61.2882 66.2716 61.5513 66.1704 61.8144 66.1141L61.8034 66.1254Z" fill="#00A4F4"/>
<rect x="2.1156" y="1.87061" width="101.574" height="136.788" rx="9.17086" stroke="#00A4F4" stroke-width="3"/>
</svg>
