<svg width="106" height="106" viewBox="0 0 106 106" fill="none" xmlns="http://www.w3.org/2000/svg">
<path d="M65.3144 67.0174L80.6124 60.4064C85.709 59.0158 88.5677 65.635 84.1163 68.4161C75.916 72.425 67.9934 77.0194 59.8095 81.0608C57.9472 81.9797 56.2565 82.9393 54.1003 83.0531C49.845 83.2645 41.8489 79.4101 37.3485 78.2148C35.3393 77.6781 33.4035 77.5642 31.3208 77.7594C30.9614 79.4345 29.5893 81.0365 27.8087 81.2479C24.9501 81.5894 21.5278 81.0202 18.6038 81.2641C18.0729 81.2316 17.7544 80.9551 17.6319 80.451L17.5665 55.446C17.5829 54.9012 17.7626 54.3157 18.3588 54.1775H27.9231C29.5729 54.5841 30.9696 55.877 31.2555 57.5765L31.4106 57.6904C33.4444 57.8205 35.568 57.5847 37.5854 57.6985C42.4124 57.9831 46.3982 60.9674 50.7924 62.6263C54.1901 62.8459 57.8819 62.3661 61.247 62.6263C63.6646 62.8133 65.4941 64.5291 65.2981 67.0093L65.3144 67.0174ZM19.78 79.2068H27.4167C28.2416 79.2068 29.3606 77.7919 29.2707 76.9462C28.9359 71.0182 29.7199 64.6023 29.2707 58.7231C29.1972 57.7798 28.9767 56.9504 28.0701 56.495C27.9476 56.43 27.335 56.2023 27.2697 56.2023H19.78V79.2068ZM31.3371 75.5069C32.3173 75.5557 33.3219 75.4419 34.2938 75.5069C39.9866 75.8891 46.0307 79.3857 51.5602 80.6461C54.7864 81.378 56.4117 80.3534 59.1315 79.0035C66.221 75.4825 73.4739 71.6525 80.4572 67.9119C81.421 67.3915 83.4466 66.5295 83.9203 65.6106C84.8106 63.903 83.3322 62.0652 81.4945 62.3742C75.5893 64.7243 69.921 67.668 64.0403 70.0587C63.1582 70.4165 62.3741 70.7905 61.4103 70.8637C57.155 71.1808 52.4994 70.6198 48.2033 70.8474C47.0435 70.6686 47.0435 68.9853 48.2033 68.8064C52.3443 68.5299 56.91 69.1479 60.9938 68.8064C63.9586 68.5543 63.8198 65.0983 61.541 64.83C58.0779 64.4153 53.8389 65.1715 50.286 64.8056C47.2313 63.8867 41.5712 59.9022 38.5655 59.9022H31.3453V75.515L31.3371 75.5069Z" fill="#00A4F4"/>
<path d="M48.5054 23.9197C51.9603 23.6188 55.3417 24.9362 57.7021 27.4326C58.6659 26.7251 59.5398 25.8632 60.6016 25.2777C69.1204 20.5938 79.2238 28.2376 76.8633 37.6379C75.2625 44.0212 67.6503 51.1609 62.6353 55.243C61.9493 55.7959 58.4862 58.5688 57.9308 58.642C57.5387 58.6908 57.1957 58.4225 56.8853 58.2354C55.26 57.2434 53.1282 55.4056 51.6336 54.1452C46.8718 50.1119 38.8512 42.3461 38.353 35.8733C37.8793 29.8396 42.4613 24.4401 48.5054 23.9197ZM48.2277 26.1071C43.3271 26.6601 39.815 31.596 40.5909 36.3775C41.571 42.4193 49.8612 49.9818 54.5249 53.7305C54.9169 54.0476 57.5959 56.1944 57.8001 56.1781C62.8722 52.3562 68.2057 48.022 71.8974 42.8177C74.6499 38.9471 76.5121 34.6047 73.6616 30.1567C70.5661 25.3346 63.5583 24.6028 59.5398 28.7337C59.0498 29.2297 58.5924 30.3193 57.8246 30.3193C57.0977 30.3193 55.9951 28.6686 55.3417 28.1238C53.3406 26.4649 50.8168 25.8144 48.2277 26.1071Z" fill="#00A4F4"/>
<rect x="1.88788" y="2.43921" width="102.03" height="102.03" rx="9.17086" stroke="#00A4F4" stroke-width="3"/>
</svg>
