<svg width="105" height="141" viewBox="0 0 105 141" fill="none" xmlns="http://www.w3.org/2000/svg">
<path d="M28.7894 101.112C27.8529 98.7522 29.2803 96.0663 31.8625 95.7317C32.5444 95.6413 33.2808 95.795 33.9446 95.7136C39.4725 95.0354 47.0735 91.825 48.6373 85.9831C48.9646 84.7441 48.9283 83.5052 49.4556 82.2753C49.9284 81.1811 50.8103 80.2858 51.3013 79.065C53.3288 73.9827 51.7559 68.0503 51.6832 62.76C51.5922 55.9052 52.3651 48.7158 53.9744 42.069C54.1926 41.1737 54.9745 39.2927 55.0018 38.5602C55.0199 38.0719 54.2835 36.5798 54.1835 35.7478C53.7198 31.9315 55.9473 28.2147 59.6387 27.0029C60.4115 26.7497 61.1844 26.7769 61.839 26.587C63.1664 26.1981 64.512 25.4837 65.894 25.0496C69.4036 23.9644 75.277 22.825 78.8957 23.1776C80.3049 23.3133 80.3413 24.6427 79.1594 25.1943C77.1318 25.2666 75.1225 25.348 73.1222 25.6284C72.8676 25.6645 72.604 25.4656 72.6858 25.8816C76.1317 29.8606 77.2046 35.0786 76.8772 40.2332C77.9501 40.3237 79.123 39.2656 79.8958 40.4503C80.214 41.2189 79.8958 41.653 79.1957 41.9243C77.1773 42.7111 73.2041 42.9462 71.022 42.8377C69.549 42.7653 67.1124 42.0238 65.9486 42.0509C65.6395 42.0509 65.3121 42.3041 64.9848 42.3222C66.9305 50.7053 64.6393 59.4863 61.1662 67.1279C60.6661 68.2312 59.0659 70.7271 58.9022 71.6586C58.6295 73.2411 59.1659 76.8856 59.6842 78.45C60.2024 80.0145 61.4298 81.2625 61.9663 82.7908C62.5573 84.4729 62.5663 86.2996 63.2301 88.1444C64.7757 92.44 68.2307 94.7098 65.594 99.7107C65.3303 100.217 64.9667 100.642 64.6302 101.103H71.3584C71.3584 101.103 72.0675 101.465 72.1039 101.492C72.604 102.008 72.2858 103.057 71.5311 103.183C67.9125 103.21 64.3029 103.174 60.6843 103.183C48.3736 103.22 35.9812 103.437 23.6069 103.201C22.043 102.993 22.8522 101.103 23.6069 101.103H28.7621L28.7894 101.112ZM74.5588 40.5407C75.4407 35.4493 73.8678 29.7973 70.1037 26.171L65.8577 27.1838C66.3486 27.6993 67.0578 28.0067 67.6124 28.486C71.2038 31.5788 71.422 37.0048 68.1307 40.4051C70.2673 40.4955 72.4585 41.1104 74.5588 40.5407ZM60.9207 28.8026C54.6108 29.7702 54.7199 40.188 61.7753 40.7397C70.4946 41.4179 70.6765 27.3014 60.9207 28.8026ZM54.3199 69.9765H57.202C58.2385 68.5205 59.0568 66.7028 59.766 65.0479C62.6664 58.2745 64.6939 50.2441 62.8937 42.9191C60.5024 42.8558 58.3931 42.1504 56.5929 40.5859C53.8289 50.0813 53.4834 60.1646 54.3199 69.9765ZM56.7656 72.0655H54.4926C54.4562 74.2811 54.3199 76.56 53.6198 78.6761C54.9199 78.3144 56.1655 78.1516 57.4657 78.6761C57.1111 76.4877 56.6838 74.2992 56.7656 72.0655ZM55.1472 80.4576C49.001 81.1901 49.9829 90.5228 56.4838 89.6185C62.0754 88.8408 61.0389 79.7613 55.1472 80.4576ZM61.3116 88.9402C58.6659 92.3043 54.0198 92.9102 50.8194 89.8988L49.7738 88.5875C47.8827 92.9373 42.5911 95.7408 38.1905 96.9797C35.9084 97.6217 34.3901 97.5132 32.2171 97.8207C30.0441 98.1282 30.2077 100.877 32.1989 101.112C35.8812 100.814 40.1362 101.492 43.7458 101.112C45.0914 100.968 45.4733 100.145 46.4734 99.6474C48.0554 98.8697 52.9742 98.7341 54.6199 99.34C55.3927 99.6203 55.9837 100.235 56.7111 100.57C59.1568 101.682 62.2299 101.257 63.6665 98.8335C66.0213 94.8636 62.2663 92.5575 61.3207 88.9312L61.3116 88.9402Z" fill="#00A4F4"/>
<path d="M64.394 36.6971C65.6396 35.3859 65.3578 33.2064 63.8121 32.2659C62.6847 31.5787 60.439 32.2026 61.5937 29.9599C64.1031 29.1189 66.9125 31.443 67.2307 33.9028C67.9399 39.3106 60.9299 41.7523 58.1205 37.4025C57.575 36.5524 56.5748 33.948 58.1114 33.6586C59.648 33.3692 59.3025 35.3407 59.9298 36.2992C60.8754 37.7371 63.1848 37.9632 64.3849 36.7062L64.394 36.6971Z" fill="#00A4F4"/>
<rect x="1.53711" y="1.87061" width="101.574" height="136.788" rx="9.17086" stroke="#00A4F4" stroke-width="3"/>
</svg>
