<svg width="106" height="106" viewBox="0 0 106 106" fill="none" xmlns="http://www.w3.org/2000/svg">
<path d="M40.7012 90.4401C38.9795 89.9228 37.5028 89.0653 36.693 87.3911C36.5841 87.1597 36.1894 86.166 36.1894 86.0027V82.8788H19.5372C18.8839 82.8788 17.6113 82.1098 17.1622 81.6197C15.3588 79.6597 16.2367 77.3457 17.3527 75.3108C18.8362 72.6089 21.429 70.2405 24.4097 69.3489C24.573 69.1788 23.7904 68.6887 23.6067 68.4778C17.9516 61.917 25.7435 52.9742 32.8345 57.3639C36.6045 59.6983 37.2646 64.7618 34.5222 68.1919C34.3656 68.3893 33.3993 69.1583 33.5762 69.3557C35.6858 70.0091 37.741 71.4723 39.102 73.2214L39.313 73.2827C41.5179 70.3766 44.5666 67.9741 48.1257 67.0349C48.3298 66.8172 47.3635 66.3271 47.1866 66.157C39.2994 58.902 47.4452 46.461 57.0949 50.5717C62.9473 53.0627 64.4989 60.6987 60.2729 65.4356C59.7557 66.0209 59.1501 66.2931 58.6941 66.7287C58.5716 66.8444 58.558 66.8308 58.5988 67.0281C62.1579 67.9741 65.2066 70.3834 67.4115 73.2758C67.6225 73.3235 68.2962 72.3639 68.5548 72.1121C69.8001 70.9483 71.5082 69.8253 73.1415 69.3489C73.3184 69.1583 72.3521 68.3825 72.1956 68.1851C69.1536 64.3807 70.3922 58.6706 74.9312 56.8126C82.1651 53.8521 88.3238 62.5363 83.0362 68.5526C82.8593 68.75 82.1311 69.1652 82.308 69.3489C86.3979 70.5876 89.3514 74.2355 90.5967 78.2237V79.6801C90.168 80.9392 89.4671 82.0553 88.1809 82.5726C88.0108 82.6406 87.2894 82.8788 87.1805 82.8788H70.5283V86.0027C70.5283 86.166 70.1336 87.1597 70.0247 87.3911C69.2285 89.0449 67.7314 89.9568 66.0165 90.4401H40.708H40.7012ZM52.1543 52.2255C43.818 53.3553 44.8524 66.5858 53.7127 66.1502C63.063 65.6874 62.2396 50.8644 52.1543 52.2255ZM28.1525 58.623C22.1708 59.4397 22.9534 68.8317 29.2754 68.4778C35.5974 68.1239 35.1482 57.6702 28.1525 58.623ZM76.8775 58.623C70.3173 59.5826 72.3657 70.3017 79.2117 68.226C84.9484 66.4905 83.1042 57.711 76.8775 58.623ZM51.7188 68.5186C43.2328 69.3081 37.5777 77.1347 38.51 85.4174C38.6869 86.9759 39.9935 87.9832 41.4838 88.1125C49.0444 88.7658 57.5372 87.6088 65.1998 88.1125C66.5813 88.0716 67.9764 86.9487 68.1601 85.5467C69.5007 75.7191 61.5046 67.5998 51.712 68.5118L51.7188 68.5186ZM36.3323 80.5444C36.482 78.8226 37.1558 77.1824 37.9043 75.6511C34.1547 69.3625 24.6206 69.2196 20.2789 75.0317C19.3262 76.3044 16.9988 80.1905 19.9727 80.5512H36.3391L36.3323 80.5444ZM70.3718 80.5376L86.7314 80.5512C89.7053 80.1905 87.3779 76.3112 86.4252 75.0317C82.0835 69.2196 72.5494 69.3625 68.7998 75.6511C69.5688 77.1824 70.1812 78.8226 70.3718 80.5376Z" fill="#00A4F4"/>
<path d="M90.5831 33.4214V34.4423C89.1676 36.3207 86.8335 37.4641 85.2274 39.1995C85.2819 41.3978 89.052 47.6523 84.5129 46.9854C83.5193 46.6383 79.7085 43.5348 79.0279 43.6029C78.3474 43.6709 74.7951 46.5838 73.8152 46.9786C72.5426 47.4618 71.4606 46.7404 71.3721 45.4268L73.0598 39.0906L68.0852 35.1229C67.1869 34.0203 67.7518 32.5367 69.1604 32.2985C70.6372 32.0467 72.8012 32.2372 74.3664 32.1215C74.7271 32.0943 75.0741 32.0058 75.4212 31.9378L77.7486 25.901C78.4767 24.9278 79.8446 24.9482 80.5251 25.9555C81.0491 26.7518 82.4169 31.5771 82.8797 31.8901C83.0498 32.0058 83.5874 32.0875 83.8188 32.1147C85.1118 32.244 88.8818 31.999 89.7801 32.5503C90.0727 32.7272 90.3109 33.19 90.5763 33.4282L90.5831 33.4214ZM86.9423 34.5852C85.5949 34.1973 82.3012 34.7622 81.2736 33.9251C80.4979 33.2921 79.7289 29.9573 79.2321 28.916C78.1705 29.9709 77.8643 34.0408 76.2446 34.2926C74.625 34.5444 72.8625 34.3198 71.236 34.592C71.9302 35.504 75.1014 37.3007 75.3872 38.2195C75.7887 39.5058 74.414 42.514 74.1418 43.8955C74.346 44.0997 78.1637 40.9963 79.164 41.0099C80.2188 41.0235 82.9001 43.4464 84.0297 43.8955C84.2067 43.6777 82.5598 39.499 82.7504 38.4781C82.9681 37.3143 86.2142 35.6673 86.9355 34.592L86.9423 34.5852Z" fill="#00A4F4"/>
<path d="M57.0132 31.9374C57.3603 32.0055 57.7141 32.0871 58.068 32.1144C59.6468 32.2369 61.7496 32.0327 63.274 32.2913C64.6894 32.5295 65.2815 33.9451 64.4036 35.0953L59.4495 39.0495L61.0487 45.1406C61.2052 46.5767 60.0959 47.407 58.7213 47.019L53.284 43.5889L48.0712 46.9714C43.2804 47.7473 47.275 41.3362 47.2478 39.0427L42.2936 35.0885C41.3681 33.843 42.0691 32.4615 43.5458 32.2641C45.0225 32.0667 47.0572 32.2301 48.6292 32.1144C48.9899 32.0871 49.337 31.9987 49.684 31.9374C50.3101 30.7192 51.4262 26.1729 52.3312 25.4991C52.9301 25.0568 53.7603 25.05 54.3592 25.4991C55.2711 26.1729 56.3803 30.7192 57.0064 31.9374H57.0132ZM53.4949 28.9156C53.1138 28.8476 53.2704 28.9701 53.1955 29.1198C52.6579 30.1747 51.9297 33.2986 51.1676 33.9247C50.1604 34.7482 46.8463 34.2242 45.4989 34.5849C46.2815 35.6534 49.3302 37.2051 49.65 38.3621C49.9494 39.451 48.323 43.4868 48.5544 43.7455C49.9086 43.3711 52.1067 40.9959 53.3997 41.0299C54.3115 41.0572 57.9659 43.9496 58.1497 43.7455C58.1497 42.2686 56.6866 39.7028 57.054 38.3621C57.3535 37.2595 60.3681 35.6057 61.2052 34.6597C59.8578 34.1425 56.5981 34.7958 55.5433 33.9247C54.7471 33.2782 53.9509 29.9842 53.5017 28.9156H53.4949Z" fill="#00A4F4"/>
<path d="M31.2761 31.9375C31.6232 32.0056 31.9703 32.094 32.3309 32.1213C33.9097 32.237 36.0193 32.0396 37.5369 32.2982C38.2719 32.4207 38.9184 32.9584 39.0408 33.7138C39.1906 34.6394 38.4692 35.1907 37.8567 35.7487C36.5706 36.9193 34.9577 37.9266 33.6375 39.0904C34.1139 41.3431 35.0326 43.555 35.2844 45.8213C34.9441 46.917 34.1003 47.3322 32.9842 47.0259L27.5469 43.5958L22.1912 46.9783C17.6522 47.6453 21.4291 41.3907 21.4767 39.1925C21.4359 39.0155 21.0071 38.6684 20.8438 38.5119C19.7006 37.4434 17.4685 36.1911 16.5566 35.0886C15.5902 33.9248 16.298 32.5092 17.6862 32.2914C19.2446 32.0464 21.2862 32.2642 22.8786 32.1076C23.1099 32.0872 23.6544 31.9988 23.8177 31.8831C24.2804 31.57 25.6074 26.8332 26.1178 26.0437C26.7507 24.948 28.1866 24.8867 28.942 25.894L31.2693 31.9307L31.2761 31.9375ZM35.4613 34.585C33.8349 34.3127 32.0723 34.5373 30.4527 34.2855C29.0849 34.0745 28.3976 30.5491 27.8259 29.3445C27.7715 29.2356 27.5741 28.8205 27.4653 28.9089C26.9617 29.9502 26.1927 33.2851 25.4237 33.918C24.3961 34.7551 21.1092 34.197 19.755 34.5782C20.4831 35.6535 23.7224 37.3005 23.9402 38.4643C24.1307 39.4851 22.4839 43.6639 22.6608 43.8817C23.8109 43.4529 26.4853 41.0164 27.5265 40.996C28.5677 40.9756 32.3378 44.0858 32.5487 43.8817C32.2765 42.4933 30.9019 39.4919 31.3034 38.2056C31.562 37.3685 34.7944 35.4629 35.4545 34.5782L35.4613 34.585Z" fill="#00A4F4"/>
<path d="M64.5126 22.1101C65.6014 21.8243 66.4317 22.92 65.8669 23.9001L60.9059 28.3919C59.6537 29.1814 58.4832 27.9359 59.2454 26.7313C60.8582 25.513 62.2601 23.832 63.8253 22.5797C64.0022 22.4368 64.3153 22.1578 64.5194 22.1033L64.5126 22.1101Z" fill="#00A4F4"/>
<path d="M41.5315 22.1031C41.7016 22.0691 41.8717 22.0555 42.0419 22.1031C44.0018 23.3145 45.5533 25.2338 47.3907 26.6562C48.3162 27.8336 47.0505 29.222 45.7915 28.3985L40.8306 23.9066C40.4427 23.2329 40.7285 22.2732 41.5247 22.1031H41.5315Z" fill="#00A4F4"/>
<path d="M53.0186 15.9984C53.5494 15.8827 54.1755 16.0597 54.4001 16.5906C54.577 17.0125 54.5974 20.9531 54.5021 21.5656C54.3184 22.743 52.692 22.9063 52.2973 21.8991C52.1067 21.4295 52.0931 17.5706 52.1952 16.9308C52.2632 16.5021 52.5831 16.1005 53.0186 16.0053V15.9984Z" fill="#00A4F4"/>
<rect x="2.33026" y="2.1875" width="102.03" height="102.03" rx="9.17086" stroke="#00A4F4" stroke-width="3"/>
</svg>
