<svg width="27" height="85" viewBox="0 0 27 85" fill="none" xmlns="http://www.w3.org/2000/svg">
<g clip-path="url(#clip0_32_1821)">
<path d="M7.49852 60.7467C5.78272 60.569 4.14599 59.8045 2.76088 58.8185C2.10427 58.3511 1.94372 57.5526 0.901293 57.869C0.148829 58.0979 0.0961094 59.7242 0.0481815 60.4667C-0.160303 63.7242 0.347729 71.9846 1.6921 74.8476C2.78724 77.1799 5.20279 77.6887 6.65979 79.8239C8.01614 81.8153 8.02812 85.0752 11.0883 84.9973C13.1803 84.9437 13.8801 83.3369 14.3546 81.5597C15.4281 77.5573 14.8123 73.6206 13.8705 69.6742C17.6831 72.3133 21.5078 66.7211 18.4236 63.6803C16.7246 62.0029 15.2772 63.1325 13.3313 63.2981C13.1875 63.152 13.523 59.4466 13.6932 59.2884C13.9855 59.0157 14.0047 59.4004 14.091 59.5245C14.563 60.2233 14.8674 60.8051 15.7445 61.1192C19.0299 62.2878 21.9319 58.9183 20.4869 55.7534C19.3342 53.2264 16.9067 54.5118 14.9465 53.3676L16.1375 50.709C18.7495 50.8819 19.8135 53.7011 22.6053 52.0383C26.1807 49.9105 24.5559 43.7852 20.0675 44.5399C19.4229 44.647 19.0658 45.2824 18.3565 44.8856L19.1018 41.0049L19.3654 40.7249C21.7043 40.6714 23.6621 42.5752 25.7158 40.4352C29.5284 36.4645 24.0431 30.1979 20.0555 34.322C19.3486 34.4827 19.6386 31.8607 19.617 31.3081C19.6002 30.8455 19.3989 30.417 19.4301 29.9496C21.1603 30.6873 23.1373 30.3902 24.242 28.7323C26.7462 24.9758 21.86 19.9363 18.4404 23.5662L17.0984 19.5614C18.3134 20.1018 19.7752 19.4323 20.5804 18.4536C23.0366 15.464 19.6146 10.741 16.3699 12.5352C15.6606 12.9272 15.3658 13.7452 14.5942 13.7209L13.7387 11.8122C17.8701 8.75681 15.0711 2.11778 10.2831 5.70874C9.73674 3.70267 11.3327 1.86702 9.08493 0.454978C7.86996 -0.309472 4.51503 -0.0270635 3.22818 0.640004C-2.20441 3.45435 1.94611 11.6539 3.15389 15.7756C3.46302 16.8347 4.14599 20.5595 4.539 21.1122C4.89606 21.6161 5.38492 21.7062 5.93608 21.4311C6.95455 20.9247 6.16374 19.1304 5.97682 18.2856C7.17501 18.1517 8.37081 17.9716 9.52586 17.6064C10.2496 17.3776 12.8712 15.912 13.0653 15.9095C13.4463 15.9095 13.7603 16.7227 14.5511 16.5206C15.5911 16.2552 17.3309 14.349 17.7526 14.31C19.0275 14.1932 19.9789 16.7592 18.4859 17.4165C17.6544 17.7817 17.1799 17.0538 16.3364 17.2193C16.0584 17.2729 13.7363 18.4585 13.4487 18.6703C11.8096 19.8754 13.7004 21.4262 15.1238 20.282L15.6654 22.1006C14.2803 22.7165 12.9359 23.1499 11.4262 23.3568C10.8199 23.4396 9.70559 23.5735 9.11847 23.5759C8.11439 23.5784 5.99839 22.9892 5.24353 23.6368C4.5366 24.243 5.22676 27.1791 5.26749 28.2016C5.44003 32.7518 4.94159 37.8254 3.8105 42.227C2.86393 45.9154 1.08821 50.1077 0.79825 53.9275C0.743134 54.6579 0.714375 55.4637 1.6226 55.6049C3.25693 55.863 3.03647 52.4156 3.55408 51.4443C6.03434 53.5623 9.48512 53.8472 12.6124 53.6305C12.2362 55.101 14.3737 55.6463 15.4833 55.9092C16.1854 56.0748 17.8293 56.104 18.1768 56.272C19.2 56.7638 18.6441 58.967 17.3764 59.1082C15.7996 59.286 16.2429 58.4412 15.6726 57.723C15.3491 57.3164 12.3488 56.3255 11.7233 56.2549C10.5803 56.1235 8.11918 57.0316 8.80215 58.5045C9.4348 59.8727 10.5946 58.5775 11.1746 58.446C11.9222 58.2756 11.1746 60.3499 11.3615 60.737C10.1202 60.6444 8.72547 60.8635 7.50571 60.737L7.49852 60.7467ZM5.16685 2.24924C5.86419 2.13239 7.07916 2.24924 7.85798 2.24924C8.49063 2.24924 7.56562 5.19992 8.12638 5.70631L3.0173 8.44762C2.41101 6.28086 2.34152 2.72642 5.16685 2.24924ZM9.00585 7.72942C10.5275 10.5705 11.7305 5.74039 13.42 7.16948C13.8082 8.46953 13.2906 9.46039 12.2002 10.125C11.2489 10.7044 8.79497 10.9163 9.27664 12.4622C9.65047 13.6697 10.9733 12.971 11.7809 12.8055L12.1715 13.7355C10.331 15.2863 7.81724 15.9606 5.45202 16.0872L3.84884 10.7629C4.0046 10.2151 8.75423 7.5444 9.01064 7.73186L9.00585 7.72942ZM7.23013 25.5771C10.2136 26.0251 13.3385 25.4676 16.1015 24.3039C16.5928 24.4061 16.171 26.5388 17.7047 26.4828C18.8622 26.439 20.5085 24.4499 21.1147 24.484C22.912 24.5838 23.2955 27.7244 21.63 28.0945C20.8344 28.2722 20.1778 27.6903 19.1617 27.7658C18.1456 27.8413 14.0191 28.669 15.1118 30.3756C15.6893 31.2789 17.1799 30.4292 17.2757 30.4974L17.4579 32.3208C14.079 32.6276 10.633 32.4621 7.49373 31.0524L7.23253 25.5796L7.23013 25.5771ZM16.9139 40.7054L16.6527 42.5314C13.3577 43.4395 9.35572 42.6653 6.50642 40.7858L7.314 33.5868C7.47456 33.3507 7.57041 33.4456 7.77411 33.4846C8.51938 33.6258 9.4348 34.0713 10.2735 34.2393C12.6843 34.7164 15.016 34.7846 17.4555 34.5046C17.0337 36.6008 19.4109 36.8856 20.8727 36.4279C21.4982 36.2332 21.7546 35.364 22.5813 35.2399C24.2133 34.994 25.1622 36.5935 24.671 38.1005C23.9664 40.2672 21.7929 38.6629 20.2329 38.5168C19.5451 38.4535 16.8588 38.3926 16.3268 38.5509C15.0807 38.9209 15.4545 41.0073 16.9139 40.703V40.7054ZM5.79709 43.0718C9.00585 44.7346 12.4207 45.2946 16.02 45.0779C15.0303 46.6823 18.5554 47.4346 19.5092 47.2568C19.883 47.1862 20.1059 46.8332 20.4533 46.7504C22.428 46.2854 23.051 49.0949 21.5725 50.0785C20.4797 50.8064 19.9022 49.7425 18.9556 49.2897C17.5897 48.6348 12.8856 47.2471 11.7545 48.3986C11.4549 48.7054 11.4502 49.5672 11.6994 49.9178C12.2242 50.6579 13.142 50.076 13.8633 50.1783C13.7818 51.1399 13.408 51.3591 12.5189 51.4516C9.67444 51.751 5.9936 51.2763 4.03576 48.9659L5.79709 43.0694V43.0718ZM7.3188 62.9354C8.54574 63.0546 9.93085 62.8477 11.1746 62.9354C10.4101 65.6158 11.975 65.7107 14.1317 65.4843C14.9273 65.4016 15.8739 64.8294 16.5664 65.012C17.6688 65.3017 17.6568 68.2159 15.7421 68.1356C14.9345 68.1015 14.853 67.225 14.23 67.0254C13.7986 66.8866 12.4399 66.8696 11.9869 66.9524C11.4765 67.0473 9.90449 68.3522 9.01543 68.6712C6.96653 69.4064 4.63964 69.2774 2.64825 68.4034C2.20013 66.0638 2.17617 63.6682 2.20253 61.2945C3.78653 61.9421 5.5934 62.7649 7.314 62.9329L7.3188 62.9354ZM2.92384 70.9548C6.03194 71.6632 8.9028 71.393 11.7114 69.8592C12.181 72.4496 12.9 75.1276 12.7969 77.7934C12.7658 78.6187 12.2098 82.2219 11.5939 82.6285C10.1801 83.556 9.93324 81.3747 9.53545 80.5469C8.94114 79.3029 8.22223 78.0223 7.23253 77.0533C6.30273 76.1428 4.91043 75.6023 4.10525 74.5823C3.30007 73.5622 3.13232 72.2183 2.92384 70.9548Z" fill="white"/>
</g>
<defs>
<clipPath id="clip0_32_1821">
<rect width="27" height="85" fill="white" transform="matrix(-1 0 0 1 27 0)"/>
</clipPath>
</defs>
</svg>
