<svg width="76" height="74" viewBox="0 0 76 74" fill="none" xmlns="http://www.w3.org/2000/svg">
<g clip-path="url(#clip0_32_1854)">
<path d="M0.0455124 52.5567C0.217876 54.0273 2.15151 58.1584 3.03709 59.4109C3.92268 60.6634 5.33526 59.9846 5.05789 58.5645C4.86176 57.5645 3.44918 55.5707 2.98757 54.4718C1.4363 50.777 2.41699 46.7469 6.79737 46.3591C8.35656 46.2197 9.31545 46.5874 10.7756 45.5753C12.6518 44.2743 12.7924 40.8624 16.0614 42.0502C17.9633 42.7411 18.5814 45.1046 18.0406 46.9328C17.6364 48.2943 16.3209 49.2316 15.5264 50.4195C12.2951 55.2535 11.2629 64.7177 11.4611 70.481C11.4749 70.8648 11.6414 71.2203 11.6156 71.6082L7.31445 71.6082C7.30257 69.2508 7.3937 66.7964 6.9737 64.4692C6.83898 63.7198 6.79142 62.839 5.87017 62.7158C5.20846 62.6269 4.67355 63.1662 4.63392 63.8228C4.57646 64.752 5.02818 66.4024 5.08761 67.4509C5.18469 69.1336 4.90138 71.1294 5.08761 72.7455C5.16884 73.4485 5.51951 73.798 6.19905 73.8788C7.64729 74.0525 11.1045 74.0222 12.5864 73.8828C14.5438 73.699 13.7156 71.8264 13.6859 70.479C13.6106 67.0994 13.8801 63.4107 14.4804 60.0876C14.6626 59.0796 14.9004 58.0756 15.1778 57.0918L17.4046 60.3381C21.676 65.459 26.4843 65.2328 31.1936 60.7987C33.5809 58.5524 35.6988 54.5001 39.6136 55.9909C41.6047 56.7484 43.1698 59.1968 44.6854 60.6492C49.4105 65.1762 54.2585 65.5722 58.623 60.3401L60.8499 57.0939C61.9791 61.4007 62.4408 66.0146 62.3417 70.481C62.312 71.8264 61.4838 73.701 63.4413 73.8849C64.9232 74.0242 68.3803 74.0545 69.8286 73.8808C70.5101 73.8 70.8608 73.4485 70.94 72.7475C71.1183 71.182 70.8489 69.2386 70.94 67.6044C70.9995 66.5216 71.4512 64.7783 71.3937 63.8248C71.3105 62.4511 69.5334 62.3865 69.1966 63.5561C68.937 64.4571 68.7706 66.463 68.7152 67.4509C68.6399 68.8286 68.7667 70.2285 68.7152 71.6082L64.414 71.6082C64.3883 71.2204 64.5547 70.8648 64.5685 70.481C64.7686 64.7015 63.7305 55.1546 60.4437 50.3286C59.6215 49.1226 58.3476 48.262 57.9574 46.8156C57.47 45.0117 58.1099 42.7249 59.9702 42.0502C63.255 40.8564 63.3997 44.3491 65.3511 45.6298C66.8112 46.5874 67.6929 46.2217 69.2342 46.3591C73.6007 46.7469 74.6151 50.7912 73.044 54.4738C72.5804 55.5606 71.1659 57.5787 70.9737 58.5665C70.7161 59.8836 72.0158 60.5987 72.8736 59.5927C73.8543 58.4413 75.8177 53.8455 75.9663 52.3123C76.3229 48.6842 74.4289 45.1329 70.8013 44.3087C69.4581 44.0037 68.1228 44.2016 66.7894 43.937C68.1366 40.0099 69.3788 36.0425 70.4546 32.0245C72.4219 24.6552 76.4318 11.1711 66.0386 8.32682C57.3194 5.94109 53.6047 13.0942 48.2456 17.8556C47.2194 18.7667 46.0604 19.5929 44.832 20.1969L44.832 1.82414C44.832 1.68678 44.3744 0.777736 44.2278 0.626229C43.8137 0.19999 43.2412 0.123226 42.6884 0.0787842C39.5502 -0.173728 36.0812 0.268672 32.9073 0.0969641C32.1941 0.0484819 31.1897 1.20801 31.1897 1.82212L31.1896 20.1949C24.733 16.793 22.0564 8.72275 14.0425 7.96522C4.49921 7.06426 2.03264 15.7163 3.53041 23.6734C4.81223 30.4852 7.14606 37.3515 9.24215 43.933C7.35804 44.1976 5.58093 43.9633 3.79985 44.8117C1.81074 45.7611 0.293163 48.062 0.0474962 50.2841C-0.0119368 50.8255 -0.0159042 52.0153 0.047496 52.5527L0.0455124 52.5567ZM33.4145 2.35341L42.6092 2.35341L42.6092 7.34303L33.6364 7.34303L33.4145 7.11678L33.4145 2.35341ZM33.4145 9.6116L42.6092 9.6116L42.6092 14.375L42.3873 14.6012L33.6384 14.6012L33.4165 14.375L33.4165 9.6116L33.4145 9.6116ZM39.2134 48.1873C44.4794 47.6257 50.4705 45.5975 53.3471 40.7493C55.2511 37.5434 56.0475 32.7881 52.4635 30.4832L52.4021 30.265C55.1084 26.9238 56.7825 22.3705 54.2367 18.395C53.888 17.8495 52.9252 17.0496 52.7587 16.7163C52.6993 16.5991 52.6597 16.5304 52.7587 16.4173C54.4011 14.6477 55.893 12.8377 58.0287 11.6499C62.3437 9.25 67.9306 9.61968 70.0227 14.6982C71.4967 18.2758 70.5894 21.8635 69.7949 25.4612C68.5943 30.8973 66.9717 36.2485 65.2263 41.5189C65.0678 41.7189 65.0817 41.6765 64.9252 41.5189C63.9029 40.5008 63.2154 39.7291 61.6503 39.5675C56.8855 39.0726 54.2525 44.5026 56.2278 48.5731C56.7964 49.7468 57.8781 50.5185 58.5973 51.5992C58.8568 51.9891 59.788 53.6395 59.8098 54.0011C59.8553 54.7243 57.4363 58.2716 56.84 58.9746C54.1337 62.1784 51.4254 62.8693 47.8989 60.3866C45.5116 58.7059 43.7721 55.6757 41.2738 54.2879C40.6082 53.9183 39.9821 53.694 39.261 53.4678L39.2114 48.1832L39.2134 48.1873ZM36.8083 48.1873L36.7587 53.4718C32.0079 54.4758 29.4086 61.7118 24.4338 61.932C21.2223 62.0754 17.2283 57.3019 16.3229 54.4778C16.0812 53.7243 16.9707 52.282 17.4244 51.6012C18.1238 50.5508 19.1758 49.7932 19.7424 48.6741C22.6587 42.9209 16.3704 36.6344 11.5383 40.9149C11.3244 41.1048 11.0014 41.8422 10.7934 41.521C9.0579 36.2465 7.43135 30.8993 6.22481 25.4633C5.42045 21.8372 4.53685 18.3141 5.99698 14.7002C8.05344 9.60755 13.7038 9.26616 17.991 11.6519C20.1267 12.8397 21.6206 14.6497 23.261 16.4193C23.4373 16.7688 22.5398 17.3829 22.2922 17.7081C19.1005 21.8897 20.6201 26.5218 23.6156 30.267L23.5542 30.4852C19.9762 32.778 20.7627 37.5575 22.6706 40.7513C25.571 45.6056 31.5205 47.6156 36.8043 48.1893L36.8083 48.1873ZM33.4145 16.8698L42.6092 16.8698L42.6092 21.1039C39.6473 21.9665 36.3724 21.9665 33.4145 21.1039L33.4145 16.8698ZM31.358 44.6723C31.4294 41.3048 31.3184 37.8565 29.8821 34.7617C28.4695 31.7134 25.5572 29.7741 23.994 26.8551C22.3278 23.7421 22.0742 20.7201 24.8875 18.2354C28.9727 22.5038 33.8405 24.3886 39.7226 23.9845C44.1703 23.6795 48.0455 21.3766 51.1362 18.2354C54.9638 21.6109 52.9866 26.0127 50.3159 29.3439C49.4343 30.4448 48.2753 31.4468 47.4413 32.6124C44.8935 36.1697 44.5131 40.3857 44.6636 44.6743C40.3546 46.2884 35.6651 46.2884 31.358 44.6743L31.358 44.6723ZM46.9103 43.634C46.8152 40.6685 47.0708 37.5717 48.5685 34.9678C48.8598 34.4628 50.1971 32.5659 50.6191 32.3659C51.5106 31.9457 52.5329 33.6204 52.6557 34.3698C53.2818 38.1838 50.1911 42.1654 46.9083 43.634L46.9103 43.634ZM29.1114 43.634C25.8286 42.1654 22.7399 38.1838 23.364 34.3698C23.4868 33.6204 24.5111 31.9457 25.4006 32.3659C25.8068 32.5578 27.1104 34.388 27.3957 34.8749C28.943 37.5131 29.2204 40.6079 29.1114 43.634Z" fill="white"/>
<path d="M51.8356 48.3651C49.0025 47.9974 44.1625 49.4074 46.0466 53.2093C46.3933 53.9082 48.8321 57.3161 49.3809 57.6737C53.0381 60.0594 56.8024 52.7083 54.3021 49.6317C53.7375 48.9368 52.6914 48.4762 51.8356 48.3651ZM51.6929 50.6256C53.7098 51.0033 52.7806 53.9729 51.8633 55.1122C51.3799 55.7142 50.9757 56.1808 50.3398 55.4819C50.0208 55.1304 47.7742 51.8215 47.8177 51.5932C48.5765 50.7124 50.6132 50.4236 51.6929 50.6256Z" fill="white"/>
<path d="M26.1793 48.365C24.9193 48.2195 23.7524 48.2781 22.637 48.9023C18.5538 51.185 22.4824 59.9684 26.4507 57.7806C27.1362 57.4029 29.5731 54.0212 29.9753 53.2092C31.4512 50.2315 28.741 48.6579 26.1793 48.363L26.1793 48.365ZM25.8841 50.6315C26.3616 50.6861 28.2556 51.08 28.2001 51.6961C28.1367 52.3991 25.9594 54.7242 25.6186 55.5686C24.6063 56.5908 23.3125 53.9283 23.1957 53.0718C22.8846 50.8032 23.8395 50.3992 25.8861 50.6315L25.8841 50.6315Z" fill="white"/>
</g>
<defs>
<clipPath id="clip0_32_1854">
<rect width="76" height="74" fill="white" transform="matrix(-1 -8.74228e-08 -8.74228e-08 1 76 0)"/>
</clipPath>
</defs>
</svg>
