<svg width="55" height="80" viewBox="0 0 55 80" fill="none" xmlns="http://www.w3.org/2000/svg">
<g clip-path="url(#clip0_32_1844)">
<path d="M19.9824 -0.163452C21.8147 -0.546533 23.8886 0.43501 24.8604 2.8717L24.9502 3.11194L24.957 3.13049L24.9609 3.15002C25.5814 6.49243 26.0732 9.86874 26.5693 13.2369C27.0481 16.4868 27.5318 19.7296 28.1377 22.9381L30.1367 5.97717L30.1396 5.9469L30.1504 5.91858C30.9609 3.7572 32.891 2.95405 34.6221 3.28479C36.3513 3.6152 37.8766 5.07516 37.8975 7.38049V7.39807L37.8955 7.41467L35.333 27.4655L35.3184 27.5768L35.2246 27.6403C34.9128 27.8514 34.635 27.9734 34.3896 27.9664C34.2589 27.9627 34.1396 27.9222 34.04 27.8453C33.9435 27.7708 33.8791 27.6722 33.835 27.5719C33.7494 27.3774 33.7228 27.1333 33.7168 26.901C33.7106 26.6631 33.7252 26.4042 33.7393 26.1686C33.9267 23.0593 34.4092 19.869 34.9004 16.6862C35.3915 13.5045 35.8905 10.3308 36.1201 7.23108C36.0486 5.91423 35.1312 5.1324 34.1475 5.00061C33.1699 4.86982 32.1189 5.37976 31.7666 6.71545C31.3441 9.38344 31.0993 12.1203 30.8535 14.8639C30.6077 17.6088 30.3613 20.3608 29.9355 23.0406C29.9208 23.1345 29.906 23.2423 29.8896 23.36C29.8734 23.4765 29.8553 23.6014 29.835 23.7252C29.8052 23.9067 29.7682 24.0987 29.7168 24.2653L29.6602 24.4215C29.382 25.0841 28.7224 25.4154 28.1025 25.4098C27.4758 25.404 26.8417 25.0507 26.6533 24.3053L26.6504 24.2955L26.6494 24.2848L23.2373 3.52991C22.9927 2.72269 22.4411 2.07383 21.7705 1.74963C21.1024 1.42667 20.308 1.42058 19.5459 1.91565C19.0183 2.25796 18.7544 2.67363 18.6279 3.14709C18.4981 3.63353 18.5098 4.19041 18.5605 4.81604L18.6133 5.39221C18.9003 8.28685 19.5451 11.3304 20.1797 14.3834C20.855 17.6323 21.518 20.8917 21.707 23.9567C21.7345 24.4035 21.7148 24.8137 21.6348 25.1647C21.5549 25.5146 21.4112 25.8221 21.1797 26.0416C20.6919 26.504 19.9526 26.4689 19.0459 26.0133L18.9531 25.9674L18.9209 25.8698L12.626 7.03186C12.0614 5.66028 10.8543 5.17953 9.79004 5.38928C8.73174 5.59794 7.79622 6.49321 7.76953 7.95667L14.5342 27.6373L14.5586 27.7086L14.5391 27.7819C14.3336 28.5753 13.8138 29.1207 13.167 29.2946C12.5177 29.4688 11.7938 29.2546 11.2158 28.6383L11.1953 28.6158L11.1807 28.5895C10.2886 27.0112 9.45251 25.3973 8.61719 23.7897C7.781 22.1804 6.94523 20.5768 6.0498 19.0133C5.91046 18.7698 5.76973 18.4917 5.62793 18.2242C5.48379 17.9523 5.33447 17.6836 5.16895 17.4381C4.83486 16.9426 4.45859 16.578 3.97461 16.4645C3.2698 16.2988 2.68367 16.4347 2.25879 16.7614C1.84213 17.0818 1.55431 17.6066 1.47461 18.2809C2.39437 20.8096 3.49582 23.2808 4.63184 25.7487C5.77494 28.2319 6.95499 30.715 8.01172 33.2389L8.02148 33.2633L8.02637 33.2887C8.75986 37.1452 10.012 40.1601 10.9658 43.3043C11.9172 46.4404 12.5531 49.6581 12.0088 53.8336C10.9867 61.6779 9.65035 70.9189 8.0166 78.6276L8.01758 78.6285C7.9893 78.7626 7.96988 78.9124 7.9375 79.1012C7.9073 79.2773 7.86701 79.474 7.79785 79.65C7.72936 79.8244 7.62186 80.008 7.43848 80.1227C7.24586 80.2431 7.01347 80.2613 6.75684 80.1891L6.75586 80.1881C6.44899 80.1007 6.27773 79.8656 6.19629 79.6256C6.11665 79.3906 6.11297 79.1289 6.14551 78.9156C6.7031 74.5587 7.52612 70.162 8.33008 65.777C9.13495 61.3869 9.92108 57.007 10.4082 52.6744C11.049 46.9826 9.33277 44.5581 7.70117 39.4127C7.40556 38.4809 7.19497 37.5516 6.99609 36.6393C6.79651 35.7237 6.60947 34.8275 6.36035 33.9459C5.72727 31.6982 4.51388 29.313 3.26465 26.8981C2.09887 24.6445 0.901089 22.3647 0.152344 20.1842L0.00878906 19.7496C-0.257481 18.9111 -0.339478 18.0893 -0.15332 17.3287C0.0342224 16.563 0.488473 15.8809 1.25391 15.3209C2.28983 14.564 3.37131 14.4113 4.35449 14.7106C5.32848 15.0072 6.17922 15.739 6.79199 16.7037C7.81912 18.3217 8.71942 20.2281 9.62207 22.0905C10.5285 23.9606 11.4383 25.7871 12.4922 27.278L12.6484 27.4869C12.6618 27.5028 12.6759 27.5173 12.6895 27.5319L12.7559 27.4918C11.8213 24.6454 10.7664 21.8303 9.71289 19.0084C8.63687 16.1263 7.56374 13.2368 6.63184 10.3082C6.58291 10.1541 6.52047 9.97922 6.45312 9.78967C6.38637 9.60178 6.31433 9.40055 6.24805 9.19885C6.11737 8.8012 5.99896 8.37485 5.98438 8.02014C5.79027 3.34911 12.2819 1.72205 14.3145 6.42151C15.4935 9.14752 16.3957 12.2125 17.2695 15.2858C18.0994 18.2045 18.9064 21.1285 19.8994 23.8053C19.6137 20.7957 18.9766 17.6748 18.3408 14.5397C17.6912 11.3364 17.0442 8.11829 16.791 5.01917C16.5492 2.07024 18.0846 0.233365 19.9824 -0.163452Z" fill="white" stroke="white" stroke-width="0.5"/>
<path d="M36.2781 80.3912L35.9617 80.0768C35.7542 80.151 35.5682 80.193 35.4011 80.192C35.1815 80.1907 34.9946 80.1169 34.8542 79.9664C34.7235 79.8262 34.6531 79.6405 34.6091 79.4528C34.5647 79.2626 34.5412 79.0414 34.5232 78.8082L34.5222 78.7936V78.7789C34.7063 74.3381 34.5899 69.8055 34.4851 65.2672C34.3804 60.7323 34.2883 56.1923 34.5232 51.7516C34.7366 47.7144 35.9703 45.1929 37.4968 42.8737C39.025 40.5519 40.8025 38.484 42.1873 35.2711L42.3269 34.9362C42.6403 34.1573 42.8689 33.4044 43.0779 32.6451C43.3152 31.7826 43.5308 30.8971 43.8142 29.9762C44.1528 28.8753 44.6882 27.4216 45.1687 26.0045C45.6535 24.575 46.0832 23.1802 46.2292 22.1578V22.1569C46.3411 21.3765 45.9931 20.8501 45.4861 20.6188C44.9667 20.3819 44.2359 20.4357 43.571 20.9332C42.4406 21.7806 41.7859 23.2269 41.0574 24.7838C40.3425 26.3116 39.5603 27.933 38.1511 28.9625C36.794 29.9538 35.558 30.613 34.4138 31.3395C33.4066 31.979 32.4389 32.6882 31.4412 33.7623L31.0115 34.2457C30.7915 34.5045 30.291 35.2851 29.8083 36.0416C29.5708 36.4139 29.3402 36.776 29.1589 37.0504C29.0686 37.1871 28.9883 37.3052 28.9246 37.3932C28.8929 37.4368 28.863 37.4759 28.8367 37.5074C28.8189 37.5287 28.778 37.5787 28.7263 37.61H28.7253C28.4437 37.7794 28.0967 37.7882 27.8191 37.6744C27.5354 37.5582 27.2935 37.2973 27.2966 36.9205C27.2976 36.7608 27.3584 36.5766 27.4373 36.3971C27.5194 36.2101 27.6349 35.9977 27.7712 35.7721C28.0442 35.3202 28.413 34.7963 28.8005 34.2809C29.5739 33.2524 30.4428 32.2334 30.8171 31.8649C31.8491 30.8477 32.8997 30.1393 33.9548 29.4957C35.0156 28.8487 36.0622 28.2768 37.1287 27.5153C37.7132 27.098 38.1843 26.5012 38.6082 25.7946C39.0329 25.0865 39.3996 24.2868 39.7888 23.4684C40.5567 21.8537 41.4106 20.1574 42.9441 19.2252C44.0824 18.5329 45.3229 18.5278 46.3005 19.0436C47.2777 19.5593 47.9719 20.5844 48.0437 21.9049L48.0457 21.9498L48.032 21.9938C47.5646 23.469 47.1531 24.9693 46.7468 26.4772C46.341 27.9835 45.9397 29.4988 45.4949 30.9967C44.605 33.9929 43.5354 36.9359 41.8796 39.649C41.1334 40.8711 40.4274 41.8608 39.7869 42.7526C39.1448 43.6464 38.5726 44.4361 38.0828 45.2721C37.1112 46.9302 36.4568 48.779 36.2937 51.9391L36.2791 79.7906L36.2781 80.3912Z" fill="white" stroke="white" stroke-width="0.5"/>
<path d="M24.9674 46.2452C25.9861 46.2473 27.003 46.2651 27.8531 46.2999C28.6959 46.3345 29.3945 46.387 29.7662 46.463H29.7672C31.8132 46.8833 32.8227 49.148 32.0797 50.9952C31.9107 51.4149 31.6128 51.7253 31.3619 51.9454C31.2372 52.0549 31.1158 52.1484 31.0309 52.2169C30.9866 52.2526 30.954 52.2807 30.9303 52.3029C30.9243 52.3085 30.9182 52.312 30.9147 52.3156C30.9128 52.3242 30.9112 52.3355 30.9088 52.3488C30.9002 52.396 30.8908 52.4615 30.8805 52.5421C30.8599 52.7032 30.8371 52.9118 30.8141 53.1329C30.7806 53.4553 30.7448 53.8157 30.7076 54.0685L30.6696 54.2804C30.4588 55.2045 30.1525 56.1105 29.8883 56.9952C29.6219 57.8875 29.3945 58.7713 29.3239 59.6896V59.6906C29.2741 60.334 29.3454 61.6132 29.3639 62.8849C29.373 63.5115 29.3687 64.1311 29.3278 64.6486C29.3073 64.9073 29.2768 65.1465 29.233 65.3507C29.1902 65.5505 29.1305 65.7375 29.0397 65.879L29.0387 65.8781C28.6346 66.5102 27.9138 66.7305 27.2223 66.6241C26.9332 66.5794 26.7072 66.4142 26.5504 66.3097C26.3726 66.1912 26.2752 66.1436 26.1725 66.1525V66.1534C26.0851 66.1608 25.9704 66.2146 25.7926 66.3243C25.6333 66.4227 25.4257 66.5635 25.2076 66.6642C24.9822 66.7682 24.7169 66.8439 24.4196 66.8038C24.121 66.7635 23.8217 66.6114 23.5182 66.3204L23.5172 66.3195C23.2481 66.0608 23.1098 65.6459 23.0319 65.2081C22.9522 64.7601 22.9276 64.2367 22.9254 63.712C22.9232 63.1869 22.9429 62.6456 22.9547 62.1681C22.9667 61.6837 22.9706 61.2711 22.9391 60.9796C22.8186 59.8663 22.229 58.5592 21.3922 57.7325C20.5171 58.6831 20.207 59.9635 20.1188 61.3693C20.0721 62.1129 20.0881 62.8806 20.11 63.6407C20.1318 64.3967 20.1597 65.1497 20.1344 65.8458C19.9914 69.7153 19.9265 73.6691 19.6549 77.5402C19.6426 77.7149 19.6498 77.9109 19.6617 78.1271C19.6734 78.3381 19.6901 78.5702 19.6891 78.7941C19.6871 79.2345 19.6224 79.7288 19.2594 80.0753L19.2321 80.1007L19.1989 80.1173C18.9789 80.2278 18.762 80.279 18.5592 80.2374C18.3484 80.1941 18.1984 80.0608 18.0983 79.8976C18.0014 79.7394 17.944 79.5443 17.9098 79.3439C17.8751 79.1408 17.8615 78.9152 17.86 78.6857C17.8569 78.227 17.9035 77.728 17.9508 77.3107C17.9999 76.8778 18.0455 76.5592 18.0485 76.4171V76.4161C18.1544 71.4566 18.0556 66.1791 18.3619 61.2355C18.4255 60.2176 18.5523 59.3517 18.8405 58.5402C19.1149 57.7673 19.5332 57.0552 20.1647 56.3097C20.0674 56.0934 19.949 55.8911 19.819 55.6759C19.6653 55.4215 19.4969 55.1472 19.3668 54.8302V54.8292C19.0545 54.0649 18.9447 53.6087 18.8073 53.2042C18.6703 52.8012 18.4909 52.3958 18.0133 51.6613C17.3642 50.6638 17.27 49.4385 17.6412 48.42C18.0141 47.3971 18.8628 46.57 20.0963 46.4034C20.8725 46.298 22.9379 46.2412 24.9674 46.2452ZM20.6324 53.046C20.8704 54.3339 21.7949 55.4499 22.7448 56.6241C23.7167 57.8256 24.7241 59.1 24.7242 60.6154V64.9493C24.7502 64.9788 24.7685 64.9964 24.7809 65.006C24.7816 65.0054 24.783 65.0056 24.7838 65.005C24.8312 64.9698 24.8692 64.9249 24.9596 64.838C25.0367 64.7639 25.1413 64.6722 25.277 64.6105C25.8563 64.3458 26.2855 64.3565 26.6959 64.4738C26.8883 64.5287 27.0782 64.6085 27.2604 64.6798C27.3552 64.7169 27.4518 64.7525 27.5524 64.7863V59.3234L27.5602 59.2941L29.0719 53.046H20.6324ZM24.8824 47.9982C23.037 48.0009 21.2088 48.0582 20.4801 48.1613H20.4791C19.5672 48.2893 19.1102 48.9922 19.1373 49.6974C19.1642 50.3934 19.6705 51.1245 20.7975 51.2677C22.5541 51.4896 27.0043 51.4647 28.8063 51.2823C29.0244 51.26 29.2851 51.2126 29.528 51.1339C29.7746 51.054 29.9813 50.9486 30.1129 50.8243L30.1139 50.8234C31.0227 49.9674 30.5093 48.3484 29.2594 48.1564V48.1554C28.547 48.0465 26.7288 47.9955 24.8824 47.9982Z" fill="white" stroke="white" stroke-width="0.5"/>
<path d="M16.5953 51.7816C16.9073 51.7003 17.1745 51.8282 17.3473 52.0219C17.5144 52.2091 17.6084 52.4697 17.6071 52.7191C17.6062 52.8778 17.5368 53.0425 17.4655 53.1801C17.3901 53.3253 17.2899 53.4814 17.191 53.6322C16.9822 53.9508 16.7859 54.2369 16.7076 54.4603V54.4613C16.4219 55.2774 16.4841 55.9207 16.6393 56.5834C16.7925 57.2375 17.0592 57.9725 17.1207 58.8539H17.1198C17.1827 59.7414 17.1516 60.6312 17.1002 61.5072C17.0485 62.3888 16.9773 63.2474 16.9557 64.098C16.8298 69.2452 16.7043 74.3964 16.4459 79.5521L16.4391 79.6801L16.3317 79.7494L15.6588 80.184L15.5865 80.2308L15.5016 80.223C15.1002 80.1875 14.8823 79.898 14.778 79.5765C14.6762 79.2629 14.6601 78.8675 14.6754 78.4838C14.691 78.0948 14.7411 77.6903 14.7867 77.347C14.8339 76.9921 14.8732 76.7223 14.8766 76.5717C14.9677 72.3968 15.0805 68.2421 15.1803 64.0795C15.2011 63.219 15.282 62.3372 15.3375 61.474C15.3935 60.6045 15.4243 59.7429 15.3522 58.8939C15.3014 58.3002 15.1268 57.7483 14.9635 57.1449C14.8029 56.5512 14.6583 55.9199 14.7057 55.222C14.7348 54.7876 14.9832 54.0006 15.3112 53.309C15.4769 52.9593 15.6695 52.6197 15.8756 52.351C16.0275 52.1529 16.2073 51.9688 16.4078 51.8607V51.8304L16.5953 51.7816Z" fill="white" stroke="white" stroke-width="0.5"/>
<path d="M23.6517 68.7783C24.0871 68.398 24.6859 68.2988 25.391 68.5508H25.392C25.5765 68.6171 25.7528 68.7453 25.8783 68.8301C26.0283 68.9313 26.1117 68.9747 26.1674 68.9805C26.2739 68.9911 26.3847 68.9613 26.5277 68.8936C26.5995 68.8595 26.672 68.8197 26.7552 68.7744C26.8362 68.7304 26.926 68.6821 27.0209 68.6387C27.2126 68.5509 27.4381 68.4769 27.7035 68.4854C27.9702 68.4938 28.2535 68.5848 28.5638 68.7861L28.6664 68.8672C28.7019 68.8989 28.7382 68.9335 28.7719 68.9678C28.8442 69.0414 28.9236 69.1297 28.9974 69.2178C29.0709 69.3054 29.1431 69.3973 29.1976 69.4785C29.2246 69.5187 29.2506 69.5609 29.2709 69.6016C29.2858 69.6316 29.3177 69.7 29.3177 69.7783V79.5723C29.3177 79.6255 29.302 79.6674 29.2924 79.6895C29.2815 79.7143 29.268 79.7359 29.2572 79.752C29.2356 79.7839 29.2098 79.8145 29.1849 79.8408C29.1341 79.8947 29.0686 79.9525 29.0004 80.0049C28.9322 80.0571 28.8536 80.1095 28.7758 80.1494C28.7193 80.1783 28.6332 80.214 28.5394 80.2207C28.4223 80.2491 28.307 80.2255 28.2299 80.2002C28.1284 80.1668 28.0277 80.1132 27.9408 80.0576C27.8533 80.0016 27.7693 79.937 27.7045 79.873C27.6725 79.8415 27.6402 79.8049 27.6136 79.7656C27.5934 79.7357 27.5483 79.6646 27.5482 79.5723V70.375C27.4772 70.4033 27.4071 70.4318 27.3373 70.4609C27.1661 70.5323 26.99 70.6063 26.808 70.6621C26.4301 70.778 26.0272 70.8158 25.5023 70.6572C25.4445 70.6398 25.3833 70.6022 25.348 70.5801C25.3031 70.5518 25.2497 70.5158 25.1957 70.4795C25.0833 70.4039 24.9591 70.3207 24.8422 70.2559C24.7983 70.2315 24.7576 70.2128 24.722 70.1973V79.5742C24.722 79.6836 24.6746 79.7755 24.6283 79.8398C24.5796 79.9074 24.5159 79.9671 24.4476 80.0166C24.312 80.115 24.1301 80.1941 23.9349 80.2129C23.7355 80.2321 23.5118 80.1885 23.3236 80.0264C23.1382 79.8665 23.0176 79.6176 22.9662 79.2861C22.8303 78.4094 22.7841 76.6344 22.7914 74.8682C22.7987 73.0971 22.8599 71.3046 22.9467 70.3818C23.0075 69.7358 23.2319 69.1452 23.6517 68.7783Z" fill="white" stroke="white" stroke-width="0.5"/>
<path d="M46.7028 61.0093L54.4918 62.7407L54.5612 62.7563L54.611 62.8052L55.1735 63.3452L55.2975 63.4653L55.2301 63.6235L54.9869 64.1929L54.9547 64.2671L54.8854 64.3091C54.6811 64.4309 54.4519 64.4491 54.2584 64.4409C54.0715 64.433 53.8661 64.3961 53.734 64.3794V64.3784C52.7567 64.2589 51.7287 63.9762 50.7184 63.6948C49.8376 63.4495 48.9698 63.2052 48.1354 63.0581C48.3769 63.8182 48.6844 64.5773 48.9752 65.3599C49.3111 66.2636 49.6217 67.1909 49.7516 68.1353L49.7692 68.2661L49.6715 68.355L49.3287 68.6665L49.2311 68.7544L49.1031 68.7241L40.3424 66.6265L40.2321 66.6001L40.1793 66.4985C40.0181 66.1872 40.0391 65.8461 40.2067 65.5864C40.3542 65.358 40.6056 65.2076 40.9049 65.1909L41.0358 65.1919L41.0543 65.1929L41.0729 65.1978L47.5856 66.6763C47.5193 66.4706 47.43 66.2181 47.3209 65.9321C47.1301 65.4318 46.9011 64.8677 46.6783 64.2915C46.4587 63.7233 46.2497 63.1557 46.111 62.6812C46.0417 62.4441 45.9885 62.2231 45.9606 62.0337C45.9342 61.8542 45.9242 61.6667 45.9742 61.5151C46.0793 61.194 46.3897 61.0703 46.5768 61.0142L46.6383 60.9956L46.7028 61.0093Z" fill="white" stroke="white" stroke-width="0.5"/>
<path d="M39.4712 71.1771C39.5547 71.1855 39.6309 71.2186 39.6919 71.2523C39.7555 71.2875 39.8203 71.3331 39.8843 71.3842C40.0126 71.4867 40.1566 71.6256 40.3071 71.7845C40.609 72.1034 40.9597 72.5261 41.3062 72.9603C41.6531 73.3951 42.0012 73.8476 42.2954 74.2269C42.5938 74.6117 42.8303 74.9124 42.9644 75.056C43.0293 75.1257 43.1529 75.2661 43.2817 75.3754C43.3 75.3908 43.3178 75.4035 43.3335 75.4154L44.687 71.5844L44.7349 71.4515L44.8726 71.4232L45.2632 71.3431L45.3003 71.3353L45.3374 71.3392C45.48 71.353 45.613 71.4255 45.7173 71.4974C45.8273 71.5734 45.9365 71.6706 46.0366 71.7679C46.2332 71.9591 46.4275 72.1865 46.5298 72.2972C47.4166 73.2529 48.6207 74.7458 49.4009 75.7924C49.4501 75.8585 49.5208 75.9462 49.6069 76.0541C49.6906 76.1589 49.785 76.2786 49.8726 76.4008C49.9594 76.522 50.0446 76.6523 50.1069 76.7777C50.1506 76.8655 50.1938 76.9724 50.2075 77.0834L50.2104 77.1947C50.185 77.5052 50.0316 77.7642 49.7817 77.9017C49.5335 78.0383 49.2294 78.0339 48.9429 77.9008C48.829 77.8477 48.709 77.7481 48.5952 77.64C48.4763 77.527 48.344 77.3843 48.2046 77.224C47.9257 76.9031 47.6058 76.4972 47.2876 76.0834C46.965 75.6639 46.6521 75.2473 46.3677 74.8793C46.0839 74.512 45.848 74.2195 45.6929 74.0609V74.0599C45.6494 74.0159 45.6089 73.9692 45.5845 73.9418C45.5735 73.9295 45.5635 73.921 45.5562 73.9135C45.5255 74.0055 45.4881 74.1319 45.4448 74.2855C45.3553 74.6029 45.2463 75.0166 45.1284 75.4506C45.0113 75.8817 44.8853 76.3302 44.7651 76.7054C44.7052 76.8927 44.646 77.065 44.5884 77.2094C44.5325 77.3495 44.4717 77.4795 44.4077 77.5717C44.25 77.7988 44.0484 77.95 43.8032 78.0033C43.564 78.0553 43.3176 78.0065 43.0806 77.9056L43.0239 77.8822L42.9858 77.8344L38.6284 72.5336L38.6118 72.514L38.6001 72.4916C38.4315 72.1727 38.4536 71.8323 38.6294 71.5726C38.8028 71.3167 39.1075 71.1654 39.4536 71.1752L39.4712 71.1771Z" fill="white" stroke="white" stroke-width="0.5"/>
<path d="M43.7876 52.676C43.8778 52.6839 43.9918 52.7036 44.0864 52.7629L44.3521 52.9299L44.3081 52.9729C44.374 53.0654 44.4142 53.1718 44.4224 53.2913C44.4362 53.4952 44.3534 53.6915 44.2456 53.8616C44.0295 54.2023 43.6312 54.5628 43.2114 54.8928C42.7851 55.2279 42.3094 55.5524 41.9185 55.8167C41.7225 55.9491 41.5493 56.0652 41.4106 56.1624C41.5366 56.2177 41.6858 56.2736 41.853 56.3303C42.1873 56.4436 42.6032 56.5669 42.9683 56.7063C43.3313 56.8449 43.6983 57.0173 43.937 57.2542C44.0602 57.3764 44.1594 57.526 44.1987 57.7063C44.2386 57.8891 44.2105 58.0783 44.1235 58.2668V58.2678C44.1056 58.3061 44.0807 58.3369 44.0659 58.3547C44.0483 58.3759 44.0283 58.3979 44.0073 58.4192C43.9649 58.4621 43.9095 58.5127 43.8462 58.5686C43.719 58.6808 43.5464 58.8243 43.3452 58.9856C42.9423 59.3086 42.4152 59.7126 41.8843 60.1086C41.3532 60.5048 40.8154 60.8946 40.3911 61.1887C40.1794 61.3355 39.9936 61.4601 39.8501 61.55C39.7787 61.5948 39.7146 61.633 39.6616 61.6614C39.6353 61.6755 39.6087 61.6886 39.5835 61.6995L39.4839 61.7297C39.2346 61.7672 38.9676 61.768 38.7632 61.6243C38.543 61.4693 38.4756 61.2088 38.478 60.927V60.926C38.4799 60.7572 38.5468 60.6003 38.6343 60.4631C38.7228 60.3245 38.8441 60.1884 38.98 60.0579C39.2514 59.7973 39.6121 59.5303 39.9761 59.2747C40.3479 59.0136 40.7171 58.768 41.0386 58.5325C41.2175 58.4014 41.3678 58.2813 41.4858 58.175L38.9897 57.1047L38.8364 57.0393L38.8384 56.8733L38.8472 55.9846L38.8481 55.8606L38.9468 55.7864L42.8813 52.8381L42.9048 52.8206L42.9312 52.8088C43.0727 52.7474 43.2873 52.7 43.4839 52.6809C43.5845 52.6712 43.6904 52.6676 43.7876 52.676Z" fill="white" stroke="white" stroke-width="0.5"/>
</g>
<defs>
<clipPath id="clip0_32_1844">
<rect width="55" height="80" fill="white"/>
</clipPath>
</defs>
</svg>
