<svg width="73" height="73" viewBox="0 0 73 73" fill="none" xmlns="http://www.w3.org/2000/svg">
<g clip-path="url(#clip0_32_1859)">
<path d="M51.4535 69.8843H53.532C53.8178 68.2194 53.5944 62.12 54.4492 61.1185C55.304 60.1169 56.8551 60.7597 56.92 61.9987L56.364 71.0201C56.1718 72.3933 55.7638 72.6179 54.4518 72.734C50.5624 73.0825 42.7238 73.0877 38.8396 72.734C36.0751 72.4837 37.13 70.2199 36.8987 68.2091C36.1946 62.0606 32.934 57.1175 32.4897 51.1652C32.2039 47.3476 32.7469 43.2744 34.046 39.6839C23.9054 40.1562 14.126 37.8099 5.4898 32.5622C4.48951 31.9556 0.3143 29.2608 0.0544854 28.3987C-0.205329 27.5365 0.516955 26.7596 0.94305 26.0239C5.9081 17.4258 12.2086 9.25106 17.197 0.616813C18.2311 -0.7435 19.9718 0.495495 21.1488 1.00142C31.3803 5.3921 41.4767 11.5096 51.6926 16.0862C56.5823 19.1088 59.2506 24.2945 59.2583 30.0145C58.4269 36.1527 58.64 42.4484 57.9489 48.5891C57.8372 49.5907 57.5514 50.4347 56.4783 50.729C55.6054 50.6283 54.9636 50.0269 55.0753 49.1209C54.3193 39.0592 60.8276 24.8985 50.0687 18.4738L18.9768 3.39939C18.6754 3.55684 16.1604 7.45968 15.8486 8.0611C15.7187 8.3089 15.4121 8.27535 15.8642 8.57477L31.5362 17.4284C36.1739 14.5658 41.4455 19.9787 38.3147 24.4391C37.8808 25.056 36.6441 25.7787 36.5142 26.0059C36.1453 26.6641 36.3038 28.0244 35.5607 29.1885C32.856 33.4218 26.2905 31.4162 26.4594 26.4421L10.4834 17.0103L3.41128 27.4643C3.34633 27.8747 6.22507 29.6351 6.78627 29.981C13.1257 33.9045 20.9617 36.4521 28.4626 36.8393C31.0165 36.971 34.3084 36.2844 36.5272 36.5709C38.9954 36.891 36.6259 40.6725 36.1998 42.2057C33.2483 52.8404 38.0341 56.6942 39.4683 65.9144C39.6684 67.2076 39.7801 68.5705 39.7619 69.8818H41.3234V60.4602L45.3349 56.7045C46.4417 55.5998 51.4561 58.8212 51.4561 59.6859V69.8818L51.4535 69.8843ZM11.9722 14.6329L28.7224 24.1938C29.8682 24.9192 29.1199 26.3311 29.4239 27.3688C29.8266 28.7523 32.0506 29.0208 33.0145 27.9444C34.1733 26.6512 32.921 25.5129 33.399 24.4623C33.9135 23.3291 35.8881 24.0467 36.2856 22.1418C36.6415 20.4304 35.3762 19.2301 33.6692 19.5528C32.6871 19.7386 32.682 20.9208 30.9282 20.4665L14.1702 10.7791C13.8636 11.4167 11.6474 14.1735 11.9722 14.6329ZM48.5956 69.8843V60.721L46.4235 59.6007C45.8208 60.0266 45.3505 60.6074 44.8231 61.1159C44.6022 61.3301 44.1787 61.3301 44.1787 61.3663V69.8843H48.5956Z" fill="white"/>
<path d="M50.7314 36.6407C50.3235 37.3428 50.8717 48.1272 50.6872 50.1509C50.3676 53.6692 47.611 51.106 45.865 50.3419C44.1321 51.6893 40.9156 55.4709 40.5311 50.9227C40.1465 46.3746 40.8324 41.4909 40.544 36.9711C40.4349 36.4058 39.4762 35.9903 38.9904 35.4172C35.8414 31.7209 39.1151 26.4965 43.9892 27.3534C44.579 27.4567 45.2571 27.9729 45.6546 28.0065C46.1249 28.0478 46.8861 27.3792 47.6811 27.2863C51.9681 26.7804 55.0261 31.1453 52.7137 34.8648C52.2669 35.5824 50.8223 36.4858 50.734 36.6381L50.7314 36.6407ZM47.8162 47.944V35.1668C48.697 33.9795 50.1234 34.3589 50.5599 32.7147C50.9964 31.0704 49.5908 29.8263 47.9539 30.1334C47.0732 30.2986 46.738 31.6305 45.361 31.4318C44.7037 31.3363 44.4231 30.5645 43.8541 30.3296C41.5573 29.3849 39.6009 31.8319 41.3053 33.6362C41.9185 34.2841 43.3994 34.4622 43.3994 35.1694V48.4628C45.1687 46.9631 45.7273 46.9192 47.8162 47.9465V47.944Z" fill="white"/>
<path d="M23.1988 68.0157C22.0297 66.8644 25.0279 63.452 26.1087 63.4185C26.8232 63.3953 28.0651 64.0431 28.6705 63.9038C29.6344 63.6818 29.9982 61.2657 31.7701 62.1898C33.9266 63.3127 30.3749 67.12 29.0187 67.0348C28.3691 66.9935 27.5221 66.4643 26.9064 66.5263C26.0308 66.6166 25.8515 68.0466 25.0279 68.2867C24.5628 68.4209 23.5392 68.3512 23.1988 68.0157Z" fill="white"/>
<path d="M70.8773 13.4172C72.4232 14.9479 68.3312 17.7769 66.7775 17.3665C66.1695 17.2065 65.2446 16.2772 64.8367 16.2772C64.356 16.2772 61.5032 18.9643 60.8485 16.5199C60.4666 15.095 64.0702 12.8906 65.229 13.2056C65.8681 13.3785 66.7515 14.3 67.2166 14.3413C67.8427 14.3981 69.5939 12.1421 70.8773 13.4146V13.4172Z" fill="white"/>
<path d="M67.7492 21.6954C68.1389 22.0077 68.6299 23.2054 69.3107 23.3861C70.2564 23.639 72.5791 21.9561 72.9792 24.132C73.3456 26.1222 68.9807 26.8785 67.9388 26.2771C67.4504 25.9957 66.4657 24.465 66.3462 24.4392C65.5148 24.274 64.3482 25.2549 63.4155 24.847C62.662 24.5166 62.2593 23.1228 62.8803 22.5136C63.4467 21.9561 66.9723 21.0733 67.7492 21.6954Z" fill="white"/>
<path d="M60.8718 6.19758C61.6669 5.43353 63.1244 6.0014 63.3011 7.15263C63.3634 7.56305 62.2696 10.0591 61.963 10.5057C60.929 12.0157 59.4169 10.8412 58.4633 11.4168C57.5878 11.9486 57.8138 14.8809 55.3456 13.7451C54.2362 13.0895 55.6314 9.97393 56.2653 9.23311C57.3383 7.97605 58.9778 8.80204 59.7702 8.3271C60.2249 8.05348 60.5081 6.54604 60.8718 6.19758Z" fill="white"/>
<path d="M23.3287 46.9786C23.6535 47.2909 24.303 49.3456 24.4745 49.4514C24.9967 49.7766 28.4626 48.8061 27.943 51.0724C27.5247 52.9051 24.355 52.3734 22.9312 52.1643L21.3178 49.6192C20.5773 49.17 18.9742 49.9754 18.2234 48.8216C16.3527 45.9435 22.6922 46.3694 23.3261 46.9786H23.3287Z" fill="white"/>
<path d="M27.2285 57.2983C27.6494 57.7165 27.652 59.0871 27.2285 59.5001C27.07 59.655 23.8223 60.8295 23.5157 60.8243C22.3959 60.814 21.4814 58.9374 20.8864 58.8264C20.3928 58.7335 17.4881 60.7572 17.1477 58.3824C16.9139 56.7511 20.8475 55.4218 21.9257 55.9793C22.57 56.3123 23.1858 57.4713 23.8821 57.6287C24.6511 57.8017 26.2022 56.2865 27.2259 57.2983H27.2285Z" fill="white"/>
<path d="M55.8002 54.1827C57.4968 53.922 58.1256 56.6633 56.2471 56.9808C53.9841 57.3628 54.0595 54.4486 55.8002 54.1827Z" fill="white"/>
</g>
<defs>
<clipPath id="clip0_32_1859">
<rect width="73" height="73" fill="white"/>
</clipPath>
</defs>
</svg>
