<svg width="75" height="84" viewBox="0 0 75 84" fill="none" xmlns="http://www.w3.org/2000/svg">
<g clip-path="url(#clip0_32_1834)">
<path d="M15.1132 2.30804C13.8968 0.964657 15.6297 -0.822768 17.0719 0.416934C28.395 8.03322 41.0776 14.4166 52.271 22.132C59.1803 26.8925 62.7154 34.2766 62.0916 42.7674L53.9749 83.5153C53.0536 84.48 51.712 83.9143 51.6047 82.6182L59.5805 41.7554C59.8846 35.1737 56.9577 28.9256 51.7679 25.0014L15.1132 2.30804Z" fill="white"/>
<path d="M11.9291 11.5923C11.0369 10.5036 12.298 8.80638 13.6754 9.57725L37.3256 24.5416C38.9825 25.4184 40.3509 24.1584 41.7708 23.9691C47.4278 23.2185 50.8981 29.2254 47.3608 33.6523C46.7727 34.3871 45.9051 34.9123 45.4557 35.7823C45.127 36.4202 45.0241 37.2452 44.7178 37.9078C42.4527 42.808 35.4563 42.373 33.7569 37.2519C32.4153 33.2105 32.7887 32.9941 29.106 30.4674C22.5322 25.9571 15.5 22.0667 8.87916 17.6173C7.61135 16.7833 7.96911 15.219 9.4404 15.0162L32.2856 29.4531C35.1745 31.7454 35.1432 33.224 36.2702 36.4044C36.9276 38.2617 38.7387 39.2963 40.617 38.4984C42.6316 37.6464 42.5131 35.3225 43.7094 33.6861C44.5792 32.4937 45.8447 32.0204 46.1153 30.3772C46.3456 28.973 45.6905 27.4876 44.3869 26.87C42.3454 25.903 41.5695 27.145 39.7449 27.3298C38.5286 27.4538 37.1601 27.3433 36.0354 26.8542L11.9291 11.5923Z" fill="white"/>
<path d="M39.3 43.5721C41.0665 43.4684 41.7261 44.228 43.1437 44.6608C43.8257 44.8682 44.4115 44.8028 45.0331 44.9516C46.3054 45.2536 50.0351 48.6617 50.5114 49.8901C51.0972 51.4003 50.8043 53.048 49.7131 54.2471C46.8152 57.432 46.0036 58.0564 45.0756 62.5644C44.0247 67.6607 43.5171 72.8877 42.4685 77.9885C41.8983 79.7421 39.5907 78.9239 40.0044 77.1929C41.9877 69.3782 41.0419 59.668 46.6967 53.4018C47.4659 52.5498 48.9529 52.1035 47.8684 50.5325C47.4995 49.9983 44.7782 47.5797 44.2327 47.449C43.535 47.2845 42.8911 47.3498 42.0883 47.0793C41.5293 46.8923 40.8675 46.3693 40.3845 46.2679C38.0322 45.7743 36.0645 47.9809 36.912 50.2733C37.5269 51.939 39.6354 53.6836 39.499 55.9331C39.1413 63.0197 37.348 69.9958 36.3172 77.017C35.7358 78.5971 33.5982 78.0291 33.8062 76.3544L37.0037 57.1119C36.9947 53.3996 33.6228 52.2568 34.1595 48.1838C34.4815 45.736 36.912 43.7164 39.3045 43.5744L39.3 43.5721Z" fill="white"/>
<path d="M29.2894 42.6886C21.3404 39.2558 13.5972 35.0881 6.78406 29.6875C5.27476 28.4906 3.53067 27.0819 2.17118 25.7317C1.36399 24.9293 -0.722204 23.1081 0.254929 21.9382C1.56075 20.3785 2.97614 22.8804 3.84595 23.7054C10.7328 30.26 19.1268 35.1377 27.6706 39.1701C28.8355 39.7201 30.8032 40.2791 31.787 40.926C32.3103 41.2686 32.6322 41.8997 32.3975 42.5218C30.2531 46.2567 28.0954 51.1817 28.281 55.5996C28.3257 56.6725 28.7125 57.8941 28.7863 58.9693C29.1307 63.9777 28.0037 69.6127 26.7314 74.4408C26.4542 75.4911 25.5486 79.2959 24.8577 79.8053C23.9476 80.477 22.8564 79.7918 22.767 78.7211C24.1533 73.9381 25.6313 69.0154 26.1076 64.025C26.4788 60.1414 25.4726 56.7829 25.7945 53.0818C26.1031 49.5453 27.7197 45.8149 29.2872 42.6864L29.2894 42.6886Z" fill="white"/>
<path d="M51.1284 34.6801C51.8752 34.6688 52.8367 34.9979 53.398 35.5051C53.8854 35.9446 56.7721 39.7742 56.9868 40.3241C57.8677 42.5917 56.1728 44.8367 53.825 44.8592C52.6757 44.8705 48.7068 44.591 47.7767 44.2078C46.3009 43.6015 45.61 42.0304 45.932 40.4797C46.0862 39.7358 47.1595 38.1671 47.6291 37.4661C48.5637 36.0731 49.1988 34.7049 51.1284 34.6779V34.6801ZM54.5406 41.9876C54.6233 41.7081 54.583 41.4376 54.4712 41.1716C54.3662 40.9237 51.9848 37.8402 51.6964 37.5607C51.3118 37.1843 51.1441 37.1325 50.7081 37.5337C50.4777 37.7456 48.434 41.0319 48.4318 41.2483C48.4318 41.5526 48.6688 41.7847 48.9573 41.8388C50.0641 42.0507 51.9647 42.1386 53.1341 42.1859C53.6171 42.2062 54.0934 42.1927 54.5406 41.9876Z" fill="white"/>
<path d="M70.5772 24.0728L64.7658 28.7566C63.299 29.3382 62.1944 27.8979 63.1961 26.6694C65.0185 25.6281 67.2008 22.8692 68.9762 22.0352C70.3983 21.368 71.5387 22.8714 70.5772 24.0728Z" fill="white"/>
<path d="M66.3958 36.8147L73.8551 37.4909C75.5053 37.8245 75.2906 40.065 73.7232 40.1641C71.4738 39.7179 68.804 39.8801 66.6038 39.4046C65.0743 39.0732 64.9625 37.3354 66.398 36.8147H66.3958Z" fill="white"/>
<path d="M72.5941 29.0586C74.3359 28.7746 74.9486 30.6725 73.6294 31.4501C71.8495 32.5005 68.4441 32.8859 66.4898 33.8754C65.0498 33.9498 64.4998 32.1444 65.7184 31.405C66.378 31.0038 71.7601 29.1939 72.5963 29.0586H72.5941Z" fill="white"/>
</g>
<defs>
<clipPath id="clip0_32_1834">
<rect width="75" height="84" fill="white"/>
</clipPath>
</defs>
</svg>
