<svg width="63" height="63" viewBox="0 0 63 63" fill="none" xmlns="http://www.w3.org/2000/svg">
<path d="M34.1291 10.1322C36.1325 10.042 37.9862 10.8125 39.5097 12.0696C43.8731 15.6691 47.9504 20.9286 52.1201 24.8385C53.5379 26.8463 53.8769 29.5366 53.0271 31.8394C52.2368 33.9815 46.3807 39.7209 44.2099 40.4893C41.1124 41.5834 38.7787 39.7429 35.8243 41.9907C30.8356 46.3696 26.3951 52.131 21.3954 56.3998C18.4409 58.9228 14.5618 59.5744 10.9293 58.1236C9.91657 57.7185 9.18346 57.047 8.23019 56.5869C7.85593 56.6596 3.78308 61.1727 2.92889 61.831C1.67841 62.7931 0.430138 62.3329 0.795594 60.6862L6.61866 54.8081C3.68401 49.8832 4.41713 45.4691 8.12232 41.3148C12.3933 36.5265 17.6374 32.2533 21.9414 27.4473C24.1715 24.2881 21.2985 20.9704 24.777 16.7699C26.8772 14.2337 30.7233 10.2886 34.1357 10.1344L34.1291 10.1322ZM34.2942 12.4328C31.9188 12.5231 30.4173 14.3944 28.8894 15.9377L47.8359 34.5693C50.7639 32.1366 52.655 29.1073 49.8195 25.6575C46.4467 21.556 41.4712 17.8751 37.9532 13.7934C36.9559 12.992 35.5953 12.3844 34.2964 12.4328H34.2942ZM27.1788 17.6791C25.4022 19.1365 25.0522 20.6534 25.0896 22.8659C25.138 25.7478 25.2855 27.0929 23.2887 29.4552C19.1828 34.3095 13.4082 38.6069 9.27372 43.4547C2.73295 51.1249 12.4549 60.739 19.7464 54.7508C24.5832 50.7793 28.9489 44.9056 33.746 40.7358C35.0559 39.5976 36.608 38.6466 38.3825 38.4506C39.6417 38.3119 40.7822 38.6884 41.9974 38.6025C43.6904 38.4859 44.9695 37.6361 46.0262 36.3724L27.1832 17.6813L27.1788 17.6791Z" fill="#00A3F0"/>
<path d="M45.4076 0.901204C46.1165 0.231936 49.7909 0.987064 50.8036 1.27106C57.6768 3.19301 62.9913 9.85707 63.0001 17.0913C63.0001 18.1238 62.0358 18.8922 61.12 18.3088C60.4683 17.8927 60.618 15.9245 60.4815 15.1584C59.3279 8.69685 54.4581 3.87328 47.9173 3.00367C47.0719 2.8914 45.1148 3.3229 45.0377 1.91831C45.0245 1.69596 45.2623 1.0399 45.4076 0.903405V0.901204Z" fill="#00A3F0"/>
<path d="M52.4921 18.6148C52.2059 18.3 52.0892 16.4419 51.9065 15.8188C51.3011 13.7538 49.1612 11.8495 47.0543 11.4422C46.2354 11.2837 44.5336 11.5897 44.582 10.1961C44.6524 8.17068 48.4809 9.37052 49.5971 9.89008C52.4261 11.2088 54.621 14.6058 54.5638 17.7518C54.544 18.89 53.1856 19.3743 52.4921 18.6126V18.6148Z" fill="#00A3F0"/>
<path d="M14.1853 45.8831C17.8465 45.5176 19.1938 50.9906 15.6516 52.305C10.839 54.0926 9.18124 46.3806 14.1853 45.8831ZM14.324 48.1947C13.0141 48.3378 13.2101 50.2839 14.4671 50.2839C15.7242 50.2839 15.722 48.0406 14.324 48.1947Z" fill="#00A3F0"/>
</svg>
