<svg width="66" height="64" viewBox="0 0 66 64" fill="none" xmlns="http://www.w3.org/2000/svg">
<path d="M42.4866 21.5644C46.7775 18.4772 51.488 16.2415 56.8646 17.8961C59.6517 18.7529 62.7476 21.0406 64.6225 23.2519C65.3457 24.1052 65.5053 24.2145 65.4619 25.3956C65.3544 28.3926 63.979 32.3158 62.1961 34.7213C59.0135 39.0139 53.5537 40.1673 48.4563 40.0025C54.1815 44.2726 57.8445 49.1531 55.8465 56.6734C55.5118 57.9308 53.8832 62.1367 52.8616 62.7766C52.2251 63.1756 49.4935 63.5831 48.6575 63.6352C39.533 64.2023 35.9098 59.7241 32.9111 51.9715C32.8487 51.8084 32.9701 51.6281 32.6839 51.6853C31.6519 55.0309 30.0598 58.3366 27.3628 60.6468C23.8056 63.6959 18.4689 64.2162 14.0289 63.1998C13.1444 62.9969 12.7091 63.0091 12.1298 62.2442C10.0971 59.5576 8.87609 54.8176 9.11543 51.4876C9.47445 46.5099 13.349 42.8504 17.0398 40.0043C10.0659 40.2592 4.04411 38.0288 1.36103 31.2092C0.771337 29.709 -0.208587 26.0148 0.0394295 24.4955C0.143492 23.852 2.28892 21.7638 2.88554 21.24C8.04879 16.7254 13.3924 16.1913 19.4627 19.3374L23.0095 21.5661C20.878 15.1645 20.8762 9.04735 26.1939 4.30383C27.3836 3.24065 31.0432 0.770897 32.5573 0.658162C33.8286 0.562771 36.7718 2.37693 37.8541 3.1522C40.3446 4.94034 42.4588 7.40663 43.3295 10.3984C44.3875 14.0302 43.5758 18.0349 42.4883 21.5626L42.4866 21.5644ZM31.5808 30.7808V19.4207C31.5808 19.3183 31.9104 18.6714 32.03 18.5726C32.8088 17.9274 33.7315 18.5257 33.8858 19.4519C34.2362 21.5505 33.8043 24.4105 33.7818 26.5559C33.7627 28.3094 33.6985 30.094 33.9812 31.818C37.0771 28.0717 39.8226 23.4704 40.9933 18.7078C42.4571 12.7537 41.3662 8.28943 36.2411 4.76344C35.6237 4.33851 33.3083 2.96315 32.6856 2.98917C32.3058 3.00478 31.1212 3.66037 30.7136 3.88584C22.8014 8.24086 22.5829 15.2946 25.9372 22.9883C26.8096 24.9898 27.4495 25.491 28.7208 27.0849C29.6921 28.3041 30.5957 29.5754 31.5808 30.7808ZM30.1534 32.8569C27.7288 29.0759 24.6641 25.4875 20.9768 22.886C16.046 19.4068 11.3944 18.1442 6.01783 21.6389C4.59217 22.5668 3.40065 23.7757 2.26637 25.0314C2.54561 29.2529 4.40139 33.9964 8.25691 36.1245C11.358 37.8363 16.7484 38.1069 20.2068 37.6438C22.1545 37.3836 23.7553 36.4245 25.5799 35.7464C26.5095 35.3995 27.4825 35.1723 28.4052 34.8046L17.6017 31.1954C16.2576 30.4652 16.9999 28.6788 18.4793 29.1505L30.1569 32.8552L30.1534 32.8569ZM36.255 32.5967L47.0237 29.1523C48.4511 28.684 49.2247 30.4773 47.9013 31.1971L36.1284 35.1307C41.7634 37.3906 48.6107 38.7486 54.5891 37.1061C60.3854 35.514 62.6956 30.6733 63.2384 25.0296C60.5207 21.8904 56.542 19.105 52.1748 19.5039C48.8258 19.8092 44.1516 22.7437 41.7061 25.0036C40.0411 26.542 39.526 27.8584 38.3362 29.683C37.6858 30.6802 36.9192 31.6116 36.255 32.5985V32.5967ZM32.3214 33.9253C31.2756 34.2375 31.5618 36.3014 32.9111 36.0828C34.3576 35.8487 34.0107 33.4223 32.3214 33.9253ZM30.0234 36.754C25.8019 37.8085 21.5006 39.6071 17.9642 42.1549C12.5027 46.0885 9.7797 50.6499 12.2356 57.4625C12.4541 58.0695 13.5728 60.6399 14.0046 60.8862C14.4625 61.1463 16.6131 61.3909 17.2306 61.4256C24.4265 61.8175 28.034 58.1736 30.3182 51.7842C31.6606 48.031 31.4802 46.6435 31.3155 42.7966C31.26 41.4802 31.3692 40.1482 31.3189 38.8318L24.4473 48.2512C23.6131 48.9675 22.4667 48.2651 22.6262 47.2123C22.68 46.8585 23.0858 46.3729 23.294 46.059C25.3856 42.9024 27.9699 39.954 30.0216 36.754H30.0234ZM33.5285 38.1814C33.2233 46.9054 35.0149 60.659 46.056 61.4186C47.0463 61.4863 50.8446 61.3527 51.5713 60.8341C51.9511 60.5636 53.0524 58.047 53.2623 57.4625C55.7615 50.5233 52.8495 45.9532 47.329 41.9693C44.5158 39.9401 43.2081 39.7077 39.9891 38.7919C38.645 38.4104 37.3112 37.9924 35.9931 37.531L42.8612 47.084C43.4076 48.2356 42.0079 49.2312 41.0523 48.3379L33.5268 38.1797L33.5285 38.1814Z" fill="#00A3F0"/>
</svg>
