<svg width="59" height="66" viewBox="0 0 59 66" fill="none" xmlns="http://www.w3.org/2000/svg">
<g clip-path="url(#clip0_42_2352)">
<path d="M58.5919 41.0526C57.875 41.7497 55.4071 41.6146 54.2757 41.8227C47.8888 43.0003 43.1925 48.4597 42.1799 54.6957C41.9661 56.0171 42.4433 58.5183 40.3251 58.3982C38.3602 58.2888 38.8137 55.3542 38.5589 53.9213C37.3692 47.2392 31.7315 42.4941 25.1093 41.5931C23.9217 41.4323 21.8208 41.8656 21.8208 39.9049C21.8208 37.94 24.3168 38.4033 25.5778 38.1995C32.7981 37.0326 37.7794 31.8006 38.7662 24.6465C38.8957 23.7134 38.4833 22.0359 39.7464 21.6068C42.521 20.6651 42.033 24.5586 42.372 26.206C43.5099 31.7233 48.0788 36.5263 53.6041 37.8477C55.1329 38.2124 56.6983 38.1974 58.2227 38.5578C59.0777 38.9889 59.2656 40.394 58.5919 41.0504V41.0526ZM49.7586 39.8255C45.7317 38.1352 42.2252 34.6836 40.5453 30.6722C40.3661 30.5371 39.6622 32.1266 39.5456 32.3261C37.6132 35.5975 34.7004 38.3218 31.1744 39.8277C32.1418 40.542 33.2796 41.0697 34.2966 41.7819C36.4493 43.2921 38.1875 45.242 39.5478 47.4837C39.6665 47.6811 40.364 49.2728 40.5475 49.1376C41.6919 46.4004 43.7107 43.9721 46.0621 42.1702C47.2388 41.2692 48.5322 40.6343 49.7629 39.8277L49.7586 39.8255Z" fill="#00A3F0"/>
<path d="M42.4282 16.1645C41.6854 16.8874 40.5627 16.5763 39.6752 16.7222C34.8127 17.5159 30.9629 21.1219 30.0841 25.9807C29.8466 27.2892 30.246 29.6124 28.2034 29.4965C26.3854 29.3957 26.7956 27.4458 26.6013 26.3003C25.7009 21.0125 21.9849 17.5545 16.7036 16.7029C15.6024 16.5249 13.7368 16.8788 13.7368 15.0147C13.7368 13.1505 16.0666 13.5152 17.3103 13.2878C21.6719 12.492 25.5023 9.05761 26.4372 4.69225C26.7568 3.21639 26.1932 0.580007 28.3438 0.629345C30.2525 0.672248 29.8379 2.7466 30.0862 4.05085C30.9132 8.39476 34.1606 12.1273 38.574 13.1205C39.5414 13.3372 41.3205 13.2964 42.0611 13.6697C42.914 14.1008 43.104 15.5059 42.4282 16.1623V16.1645ZM34.5644 14.9375C31.9324 13.7254 29.6371 11.443 28.4215 8.83452C26.7935 11.2971 24.8955 13.689 22.121 14.9375C22.9674 15.6389 23.9498 16.143 24.7919 16.8574C26.2494 18.0994 27.3354 19.646 28.4215 21.197C29.283 19.3908 30.639 17.769 32.226 16.5442C32.986 15.9585 33.8216 15.5274 34.5644 14.9353V14.9375Z" fill="#00A3F0"/>
<path d="M28.6914 52.2931C27.9486 53.0161 26.8258 52.705 25.9384 52.8509C21.0759 53.6446 17.2261 57.2506 16.3473 62.1093C16.1098 63.4179 16.5092 65.741 14.4666 65.6252C12.6486 65.5244 13.0588 63.5744 12.8645 62.4289C11.9641 57.1412 8.24812 53.6832 2.96673 52.8316C1.86339 52.6557 0 53.0096 0 51.1455C0 49.2814 2.32977 49.646 3.57347 49.4186C7.93504 48.6228 11.7655 45.1884 12.7004 40.8231C13.0178 39.3429 12.4542 36.7087 14.6048 36.758C16.5135 36.8009 16.099 38.8753 16.3473 40.1795C17.1742 44.5234 20.4217 48.256 24.8351 49.2492C25.8024 49.4658 27.5816 49.4251 28.3222 49.7983C29.175 50.2295 29.365 51.6346 28.6892 52.291L28.6914 52.2931ZM20.8276 51.0661C18.1955 49.8541 15.9003 47.5717 14.6847 44.9632C13.0567 47.4258 11.1587 49.8176 8.38415 51.0661C9.23056 51.7676 10.213 52.2717 11.0551 52.986C12.5125 54.2281 13.5986 55.7747 14.6847 57.3256C15.5462 55.5194 16.9022 53.8977 18.4892 52.6728C19.2492 52.0872 20.0848 51.656 20.8276 51.064V51.0661Z" fill="#00A3F0"/>
</g>
<defs>
<clipPath id="clip0_42_2352">
<rect width="59" height="65" fill="white" transform="translate(0 0.629395)"/>
</clipPath>
</defs>
</svg>
