<svg width="69" height="70" viewBox="0 0 69 70" fill="none" xmlns="http://www.w3.org/2000/svg">
<g clip-path="url(#clip0_42_2335)">
<path d="M43.6968 65.8935V69.6295H25.3015V65.8935C11.0188 62.0481 1.49382 50.0051 0.149842 35.3551C-2.72436 4.02179 36.3029 -9.48218 58.3577 9.05554C69.4436 18.3743 71.5325 33.0839 66.1835 46.2001C62.1707 56.0391 53.911 63.081 43.6968 65.8916V65.8935ZM41.3966 67.3295V64.2406C42.6043 63.7472 43.9483 63.4688 45.2078 63.0215C68.5873 54.7164 75.3706 22.1371 53.3139 8.20698C32.9507 -4.65001 1.00807 7.08965 2.30021 33.4928C2.96068 46.991 10.8249 58.3525 23.5812 62.9408C24.9021 63.415 26.3383 63.6896 27.5997 64.2406V67.3295H41.3966Z" fill="#00A3F0"/>
<path d="M26.5667 6.86879C29.32 6.81888 32.0425 7.49657 34.5692 8.53519C58.2866 0.208963 70.9853 28.3707 60.7288 47.2137C46.4692 73.4114 6.26299 64.325 4.60605 34.4911C3.91678 22.0814 13.1288 7.10685 26.5667 6.86687V6.86879ZM33.3481 10.5664C23.3316 6.08359 13.1807 13.3405 9.20439 22.4231C9.99926 22.379 10.7596 21.9086 11.5756 21.9086C12.2072 21.9086 12.9042 22.2196 13.5147 22.3502C12.9368 19.9293 12.9733 16.5447 15.8801 15.7326C17.2107 15.362 21.45 15.5655 22.673 16.2855C25.1152 17.7234 24.3914 21.5189 21.7092 22.0641L21.7169 22.2695C23.8096 25.443 26.7568 30.8588 22.5732 33.6291C23.1204 34.4757 23.7213 35.4203 23.8672 36.4339C36.1531 34.5487 36.8654 55.5956 24.2263 54.6817C19.866 54.3669 16.8804 51.7271 16.1067 47.4248C13.4687 46.1654 11.0264 44.5547 8.84728 42.6138C8.73784 42.5927 8.76088 42.7463 8.77432 42.8288C8.88184 43.4662 9.96278 45.4839 10.3314 46.1578C14.9374 54.5608 23.7578 59.9593 33.3519 60.4316V57.8456C29.6713 56.5977 30.6659 51.1646 34.5749 51.2242C38.3784 51.2837 39.2635 56.6515 35.6501 57.8456V60.4316C45.2423 59.9574 54.0626 54.5608 58.6706 46.1578C59.0411 45.4839 60.1221 43.4662 60.2277 42.8288C60.2411 42.7443 60.2661 42.5927 60.1547 42.6138C57.9756 44.5509 55.5353 46.177 52.8953 47.4248C51.8297 55.7588 39.3921 57.6382 36.3663 49.5846C33.972 43.2147 37.4568 35.1323 45.1348 36.4339C45.2788 35.4203 45.8816 34.4757 46.4288 33.6291C42.2318 30.8511 45.1962 25.4334 47.2851 22.2695L47.2928 22.0641C44.6087 21.5189 43.8868 17.7215 46.329 16.2855C47.552 15.5655 51.7913 15.362 53.1219 15.7326C56.0287 16.5447 56.0652 19.9293 55.4873 22.3502L57.5628 21.9163L60.2277 22.7111C57.9756 16.8345 53.1123 11.2306 46.809 9.68708C44.0058 8.99979 41.0395 9.09002 38.2382 9.77731C37.3608 9.99233 36.5295 10.3629 35.652 10.5683V29.394H33.3519V10.5664H33.3481ZM21.665 19.5799C22.0317 19.1364 21.8877 18.5547 21.4077 18.2667C20.7645 17.8828 17.7118 17.7944 16.89 17.8924C14.6802 18.1573 15.6805 21.4517 16.1009 22.857C16.4177 23.9167 18.0881 26.5373 16.5425 27.0287C15.3425 27.4108 14.9278 26.1956 14.1598 25.5159C10.6808 22.4404 8.53624 25.6964 7.58777 28.9946C5.29533 36.958 9.18327 41.0242 15.7208 44.6488C16.2776 44.956 17.8193 45.4974 18.1207 45.8429C18.4913 46.2691 18.4395 47.3173 18.5911 47.9586C19.3802 51.2971 22.8919 52.7254 26.079 52.3703C33.0197 51.5947 32.9103 37.9199 24.6602 38.5918C23.9075 38.6532 23.1088 39.1293 22.3754 38.7166C21.8148 38.4017 21.7764 37.2134 21.5345 36.5395C20.1156 32.6096 18.5105 34.8846 17.0532 37.1634C16.6827 37.7432 16.3141 38.3499 16.0952 39.0103L13.9506 38.156C14.4555 36.5817 15.6229 35.3511 16.3966 33.9209L13.3803 32.8362L14.2405 30.686C20.2212 33.2413 24.9501 32.5117 20.8202 25.1819C20.2039 24.0876 19.0539 22.905 18.5681 21.9739C17.4027 19.7354 20.9469 20.4534 21.6689 19.5799H21.665ZM52.9049 39.0103C52.686 38.3518 52.3174 37.7451 51.9468 37.1634C50.4704 34.8539 48.8922 32.5885 47.4656 36.5395C47.2237 37.2114 47.1853 38.3998 46.6247 38.7166C45.8912 39.1293 45.0906 38.6532 44.3399 38.5918C36.0898 37.9199 35.9784 51.5928 42.921 52.3703C46.0141 52.7159 49.399 51.3624 50.3513 48.1889C50.5587 47.4959 50.4934 46.2845 50.8793 45.8429C51.1232 45.5645 53.7382 44.3992 54.3756 44.0229C58.5496 41.556 62.3147 38.1598 62.0977 32.9072C61.9691 29.7722 60.1086 22.0219 55.5775 24.963C54.7039 25.5294 53.694 27.1401 52.8262 27.1036C50.7814 27.0172 52.302 24.6328 52.6092 23.719C53.0777 22.329 54.5138 18.2533 52.2387 17.9058C51.3113 17.7637 46.1255 17.6063 47.2832 19.5204C47.9034 20.5475 50.8582 19.5357 50.5933 21.5477C50.5357 21.9854 48.5888 24.462 48.1798 25.18C47.4637 26.4394 46.377 28.7086 46.6055 30.1484C47.1335 33.4659 52.7782 31.5672 54.7615 30.686L55.6217 32.8362L52.4652 33.919C52.9183 34.3432 55.2415 37.9026 55.0514 38.1579L52.9068 39.0122L52.9049 39.0103ZM34.1717 53.5625C32.8489 53.8505 33.1407 56.1734 34.8245 55.8048C36.1474 55.5169 35.8555 53.1939 34.1717 53.5625Z" fill="#00A3F0"/>
<path d="M35.6483 31.6919H33.3481V33.9918H35.6483V31.6919Z" fill="#00A3F0"/>
<path d="M35.6483 36.29H33.3481V38.59H35.6483V36.29Z" fill="#00A3F0"/>
</g>
<defs>
<clipPath id="clip0_42_2335">
<rect width="69" height="69" fill="white" transform="translate(0 0.629395)"/>
</clipPath>
</defs>
</svg>
