<svg width="106" height="98" viewBox="0 0 106 98" fill="none" xmlns="http://www.w3.org/2000/svg">
<rect x="2.11328" y="1.53271" width="102" height="94" rx="9.17086" stroke="#00A4F4" stroke-width="3"/>
<path d="M48.9363 52.962C36.1367 49.2583 29.1055 35.4037 33.5087 22.7458C33.7848 21.9518 35.5374 17.972 36.0592 17.6525C36.496 17.384 39.1618 18.3709 39.7724 18.6091C41.2698 19.1914 42.7086 19.9458 44.0547 20.8117C45.8452 18.5467 47.7982 16.3366 50.2787 14.7976C52.7819 16.4179 54.7463 18.6016 56.5254 20.9686C59.0494 19.4883 61.8192 18.0949 64.7667 17.7451C65.1334 18.594 65.6817 19.3446 66.0844 20.1765C72.4426 33.2918 65.4133 49.0711 51.483 52.9639V64.1432C56.0508 58.3711 63.602 56.1005 70.4972 59.0688C71.0341 59.2994 72.7678 60.103 72.9323 60.5964C73.3237 61.7762 71.917 64.6613 71.2686 65.7446C67.2547 72.4507 58.6769 75.1846 51.483 72.0707V84.5962C51.483 84.9516 50.6795 85.5093 50.2768 85.5264C49.8174 85.5453 48.9345 85.0159 48.9345 84.5962V68.9587C43.7749 70.8607 38.0935 69.0816 34.9494 64.6159C34.3028 63.6971 32.8565 60.9481 33.2989 59.9044C33.5447 59.3259 35.3654 58.5545 35.9817 58.3428C40.3623 56.8397 44.8545 57.8682 48.2274 60.9613L48.9345 61.7402V52.9658L48.9363 52.962ZM50.2125 26.7805L54.4494 22.4641C53.2338 20.8325 51.8725 19.2482 50.2806 18.0003C49.7039 18.0041 46.1571 21.8799 46.2365 22.449C47.7112 23.6912 49.2181 25.1129 50.2125 26.7786V26.7805ZM47.5203 49.7063C45.4538 44.2594 45.1948 38.3644 47.1308 32.8286C47.5921 31.509 48.3351 30.2971 48.7756 29.0039C46.0777 24.9182 42.062 21.9329 37.3978 20.4431C32.2118 29.2893 34.8757 41.1361 43.0035 47.2183C43.4989 47.5888 47.2215 49.9994 47.5184 49.7063H47.5203ZM63.4943 20.7134C63.0613 20.4393 59.5977 22.1182 58.9794 22.4623C49.1122 27.9489 45.4859 40.5651 50.7797 50.5552C63.36 47.084 69.7145 32.2803 63.4924 20.7134H63.4943ZM36.0687 61.0407C37.5245 66.1001 44.0509 68.7394 48.6433 66.1795C46.8075 61.1957 40.9049 58.7871 36.0687 61.0407ZM70.3062 61.7384C63.2277 58.1235 54.1753 61.6797 51.7836 69.2933C58.7809 73.1824 67.9127 69.2688 70.3062 61.7384Z" fill="#00A3F0"/>
</svg>
