<svg width="65" height="57" viewBox="0 0 65 57" fill="none" xmlns="http://www.w3.org/2000/svg">
<path d="M0 46.9828C0.498552 46.0134 1.43122 45.4432 2.16039 44.643C11.6634 34.2329 11.8262 18.8081 11.4209 5.50316C11.5786 4.5591 12.1891 3.95171 13.1353 3.79268L22.9758 3.79606V1.45281C22.9758 1.36653 23.476 0.559505 23.6151 0.444458C24.3477 -0.162925 25.5143 -0.151082 26.2164 0.50029C26.3147 0.591651 26.7845 1.39867 26.7845 1.45281V3.79606H36.3044V1.45281C36.3044 1.36653 36.8047 0.559505 36.9437 0.444458C37.6763 -0.162925 38.843 -0.151082 39.545 0.50029C39.6434 0.591651 40.1131 1.39867 40.1131 1.45281V3.79606H49.7602V1.45281C49.7602 1.36653 50.2605 0.559505 50.3995 0.444458C51.1321 -0.162925 52.2988 -0.151082 53.0008 0.50029C53.0992 0.591651 53.5689 1.39867 53.5689 1.45281V3.79606L63.3992 3.80452C64.2318 4.01939 64.7083 4.46435 64.9644 5.28153L65 55.1563C64.8966 56.2137 64.22 56.8888 63.1601 56.992H13.2574C12.6385 57.1019 11.4226 56.0564 11.4226 55.5285V49.387H1.46005C1.40917 49.387 0.646083 48.9556 0.568078 48.8828C0.295061 48.6307 0.278104 48.2314 0 47.9929V46.9795L0 46.9828ZM22.9758 7.59601H15.233V15.1942H61.1829V7.59601H53.5672V9.93925C53.5672 10.0255 53.067 10.8326 52.9279 10.9476C52.1954 11.555 51.0287 11.5432 50.3266 10.8918C50.2283 10.8004 49.7585 9.99339 49.7585 9.93925V7.59601H40.1114V9.93925C40.1114 10.0255 39.6112 10.8326 39.4721 10.9476C38.7395 11.555 37.5729 11.5432 36.8708 10.8918C36.7725 10.8004 36.3027 9.99339 36.3027 9.93925V7.59601H26.7828V9.93925C26.7828 10.0255 26.2825 10.8326 26.1435 10.9476C25.4109 11.555 24.2442 11.5432 23.5422 10.8918C23.4438 10.8004 22.9741 9.99339 22.9741 9.93925V7.59601H22.9758ZM61.1829 18.9942H15.2313C14.8938 26.501 13.193 33.925 9.58611 40.5266L6.34721 45.5904H50.9642C57.7456 38.5336 60.7267 28.6395 61.1829 18.9959V18.9942ZM61.1829 53.1886V36.8519L59.3006 40.6095C58.6036 42.1644 53.5316 49.3904 52.1072 49.3904H15.2313V53.1903H61.1812L61.1829 53.1886Z" fill="#00A3F0"/>
</svg>
