<svg width="54" height="66" viewBox="0 0 54 66" fill="none" xmlns="http://www.w3.org/2000/svg">
<g clip-path="url(#clip0_41_2142)">
<path d="M7.46707 65.2789C7.08229 65.3282 6.19866 65.3248 5.81048 65.2789C3.9666 65.0609 1.01265 63.1251 0.421859 61.3C-0.91806 57.161 3.33495 53.7797 7.08229 55.8484C8.76272 52.9199 11.8512 48.8389 15.338 48.1068C20.1529 47.0955 22.6199 52.6067 27.8876 51.4796C28.8206 51.2804 30.6645 49.9251 31.2332 51.2616C31.8018 52.5982 29.9954 53.1311 29.0624 53.4188C26.9104 54.0794 24.8741 53.9193 22.8021 53.0681C19.3595 51.6532 17.5497 48.4967 13.5963 51.3366C10.9539 53.2349 10.1741 55.6798 8.286 57.8778C7.26447 59.0662 6.60387 57.9357 5.55339 57.5713C2.91441 56.6571 1.1131 59.8988 3.39964 61.7648C8.63503 66.0348 10.4227 59.1649 14.4816 57.8301C17.9532 56.6894 20.2823 59.1377 23.3639 60.2801C31.6622 63.3567 38.9952 61.0037 44.2237 54.0538C48.6147 48.2175 50.1657 40.704 49.7843 33.4767C49.7077 32.0176 49.0011 29.4926 49.139 28.2532C49.2037 27.6675 50.1044 26.2425 50.387 25.5495C54.2399 16.073 50.1453 4.50411 39.4821 2.48657C30.5504 0.795925 20.3044 8.4166 22.671 18.0242C22.9127 19.0049 23.4303 19.9004 23.6193 20.8998C24.2799 24.3884 22.5024 27.785 25.2452 30.7423C27.1657 32.8126 30.0703 33.2366 32.7706 33.0408C33.6151 32.9795 35.5781 32.1418 35.8607 33.3813C36.1434 34.6208 35.1082 34.854 34.1275 35.0328C29.6804 35.8466 24.7192 34.711 22.4411 30.4869C20.6773 27.2163 21.9218 25.2567 21.6001 22.0252C21.4604 20.6291 20.6585 19.2807 20.398 17.8743C18.452 7.33718 28.8887 -1.09222 38.8658 0.171084C52.5305 1.90259 57.6229 17.5543 51.3268 28.7588C55.2734 45.8424 43.604 69.6817 23.0779 62.4764C21.3311 61.8635 17.6501 59.6076 16.2046 59.6689C13.1332 59.8 11.1276 64.8124 7.46877 65.2772L7.46707 65.2789Z" fill="#00A3F0"/>
<path d="M22.8787 45.0271C20.0474 44.1707 17.5769 41.7071 19.3799 38.6391C21.2289 35.491 24.1948 37.3111 26.8133 37.7146C30.7803 38.3241 33.9948 37.7639 37.6689 36.281C38.2971 36.0273 38.8845 35.4621 39.5877 35.6425C40.5292 35.8843 40.6314 37.0642 39.8856 37.6039C36.7716 39.8547 30.2542 40.4472 26.5597 39.8802C25.4104 39.7032 23.6278 38.9796 22.6523 38.9711C21.057 38.9574 20.4083 41.0363 21.6205 42.0152C21.9713 42.2979 23.1801 42.8257 23.6585 43.0351C27.0772 44.5384 30.1946 44.9181 33.9181 44.7649C34.7779 44.7291 36.7665 43.9902 36.9078 45.4732C37.0372 46.8199 35.1372 46.871 34.1735 46.9323C31.0715 47.1263 27.9762 46.7773 25.0086 45.8971C24.3123 46.9748 24.6868 48.817 22.9707 48.6978C18.9305 48.4186 12.5101 45.1412 12.0572 40.6174C11.875 38.7923 12.7621 36.1397 10.3053 35.6136C8.82405 35.2969 6.77076 35.743 5.14481 35.5489C2.10232 35.1846 0.823699 32.4894 1.0893 29.6529C1.25445 27.8891 3.11535 28.0134 3.26347 29.2733C3.42522 30.6455 2.93318 32.2868 4.52848 33.1074C6.77246 34.2601 10.2031 32.2459 12.7587 34.4354C15.5339 36.8105 12.9068 40.3791 15.6241 43.1679C16.7716 44.3461 20.4628 46.1474 22.0734 46.287C22.7834 46.3483 22.7629 45.5804 22.8787 45.0288V45.0271Z" fill="#00A3F0"/>
</g>
<defs>
<clipPath id="clip0_41_2142">
<rect width="53.83" height="65.2695" fill="white" transform="translate(0.169922 0.045166)"/>
</clipPath>
</defs>
</svg>
