<svg width="106" height="106" viewBox="0 0 106 106" fill="none" xmlns="http://www.w3.org/2000/svg">
<path d="M53.2662 18.0588C53.4977 18.2904 53.9099 18.1774 54.2374 18.2565C55.5079 18.5671 56.818 19.5441 57.5181 20.6341C60.4262 25.7452 62.3799 31.8727 65.2484 36.9329C65.7735 37.8591 66.1914 37.9665 67.1796 38.1754C72.7189 39.3501 78.7044 39.5817 84.2663 40.8354C85.8135 41.4002 87.1235 42.5918 87.7108 44.1562C87.931 44.7548 87.9818 45.3591 88.1964 45.9521C88.1738 46.2684 88.2303 46.6072 88.1964 46.9178C88.0778 47.9965 87.4849 49.4366 86.813 50.3007C83.1991 54.4121 78.6479 58.1 75.0792 62.1775C74.0064 63.403 73.8257 63.5216 74.0007 65.1989C74.6049 70.982 76.2311 76.9515 76.8861 82.7628C76.7337 86.8291 73.1029 89.8053 69.1051 88.3257C64.2941 85.9085 59.7147 83.0057 54.9207 80.5546C54.4577 80.3174 53.3566 79.6849 52.9048 79.668C52.4023 79.6454 51.273 80.3005 50.7761 80.5546C45.9877 83.0057 41.4083 85.9085 36.5917 88.3257C32.5882 89.811 28.98 86.8347 28.8162 82.7741C29.4656 76.9571 31.0918 70.9877 31.696 65.2046C31.8428 63.7814 31.8203 63.5668 30.8942 62.4599C27.382 58.2637 22.4073 54.4742 18.8217 50.2273C16.3259 46.9404 17.6189 42.1569 21.5321 40.8072C27.0488 39.5591 33.198 39.4405 38.6583 38.1867C39.6973 37.9495 40.0418 37.6954 40.5443 36.7579C43.3112 31.6073 45.3666 25.8016 48.1786 20.6398C49.0877 19.2166 50.7535 18.2396 52.4362 18.0588L53.2662 18.0588ZM52.4023 20.0298C51.2391 20.171 50.3864 20.8431 49.6975 21.741C46.8686 26.8069 44.9092 32.7425 42.1028 37.7631C41.205 39.367 40.4201 39.7567 38.6527 40.1125C33.2658 41.2025 27.5288 41.5357 22.1193 42.6313C19.4315 43.5745 18.5845 46.7879 20.2616 49.0639C23.8867 53.2374 28.8558 57.1004 32.3454 61.2852C33.2489 62.3695 33.7288 63.3296 33.6385 64.7923C33.2884 70.3213 31.0805 76.6578 30.753 82.2094C30.5667 85.3438 32.7971 87.535 35.9028 86.5354C41.3518 83.7511 46.5637 80.4643 52.103 77.8777C53.526 77.68 54.1471 78.0415 55.3385 78.6232C60.2342 81.0121 64.9604 84.1804 69.873 86.5975C72.877 87.4446 75.0905 85.4002 74.9493 82.3505C74.6896 76.7821 72.4705 70.3947 72.0639 64.798C71.9566 63.3465 72.3801 62.4373 73.2836 61.3586C76.8127 57.1681 81.7253 53.3221 85.3561 49.126C87.1969 46.7032 86.2596 43.4898 83.3741 42.5692C77.9477 41.355 71.6856 41.2985 66.3551 39.9826C64.983 39.6438 64.2715 38.9717 63.5996 37.7688C60.7932 32.7425 58.8282 26.8182 56.0048 21.7467C55.1466 20.5833 53.893 19.8491 52.4023 20.0355V20.0298Z" fill="#00A4F4"/>
<path d="M67.214 44.1621L67.0785 47.2005H58.9304L58.7948 52.4471C62.6402 50.5777 67.4568 52.9102 68.0102 57.2475C69.1282 66.0294 60.2912 67.8818 54.1589 63.9116L55.2036 61.1499C56.8919 62.1383 58.8965 63.0306 60.918 62.7934C66.2032 62.1778 65.0287 53.1643 59.512 55.0336C58.6932 55.3104 58.2076 55.9203 57.4735 56.3156L55.0793 55.8864L55.6158 44.1621H67.214Z" fill="#00A4F4"/>
<path d="M43.1195 52.8646C43.7858 52.8082 44.9546 52.554 45.5758 52.2829C48.2071 51.1308 47.4166 47.3413 44.7175 46.85C42.6678 46.4772 40.5107 47.0815 38.7151 48.0247L37.6818 45.359C37.7778 45.0315 39.884 44.2408 40.3187 44.1222C42.1483 43.6252 44.5199 43.4953 46.3663 43.9528C51.6854 45.28 52.7696 52.0401 47.6086 54.3104C51.5951 55.1688 52.6736 60.5001 50.2343 63.4312C47.9191 66.2098 43.2437 66.3905 40.0138 65.3627C39.5452 65.2158 38.0544 64.6059 37.7947 64.267C37.439 63.7983 38.5965 61.9459 38.636 61.2908C40.5164 62.7817 45.1297 63.7136 46.8406 61.6917C48.0942 60.2121 47.8118 57.5239 46.0501 56.5638C45.7169 56.3831 44.0117 55.903 43.6729 55.903H40.8439V52.8646C41.5836 52.8194 42.3911 52.9268 43.1195 52.8646Z" fill="#00A4F4"/>
<rect x="1.86475" y="2.37207" width="102.03" height="102.03" rx="9.17086" stroke="#00A4F4" stroke-width="3"/>
</svg>
